<svg width="27" height="27" viewBox="0 0 27 27" fill="none" xmlns="http://www.w3.org/2000/svg">
<path d="M25.65 13.5054H21.6V1.35537C21.6009 1.11748 21.539 0.883572 21.4205 0.677323C21.3019 0.471073 21.131 0.299807 20.925 0.180866C20.7198 0.0623785 20.487 0 20.25 0C20.013 0 19.7802 0.0623785 19.575 0.180866L15.525 2.50286L11.475 0.180866C11.2698 0.0623785 11.037 0 10.8 0C10.563 0 10.3302 0.0623785 10.125 0.180866L6.07501 2.50286L2.02501 0.180866C1.81978 0.0623785 1.58698 0 1.35001 0C1.11304 0 0.880236 0.0623785 0.67501 0.180866C0.468995 0.299807 0.298066 0.471073 0.179531 0.677323C0.0609967 0.883572 -0.000933774 1.11748 1.06419e-05 1.35537V22.9554C1.06419e-05 24.0295 0.426706 25.0596 1.18623 25.8191C1.94575 26.5787 2.97588 27.0054 4.05001 27.0054H22.95C24.0241 27.0054 25.0543 26.5787 25.8138 25.8191C26.5733 25.0596 27 24.0295 27 22.9554V14.8554C27 14.4973 26.8578 14.1539 26.6046 13.9008C26.3514 13.6476 26.008 13.5054 25.65 13.5054ZM4.05001 24.3054C3.69197 24.3054 3.34859 24.1631 3.09542 23.91C2.84224 23.6568 2.70001 23.3134 2.70001 22.9554V3.69086L5.40001 5.22986C5.60837 5.33869 5.83994 5.39552 6.07501 5.39552C6.31007 5.39552 6.54165 5.33869 6.75001 5.22986L10.8 2.90786L14.85 5.22986C15.0584 5.33869 15.2899 5.39552 15.525 5.39552C15.7601 5.39552 15.9916 5.33869 16.2 5.22986L18.9 3.69086V22.9554C18.9037 23.4159 18.9858 23.8724 19.143 24.3054H4.05001ZM24.3 22.9554C24.3 23.3134 24.1578 23.6568 23.9046 23.91C23.6514 24.1631 23.308 24.3054 22.95 24.3054C22.592 24.3054 22.2486 24.1631 21.9954 23.91C21.7422 23.6568 21.6 23.3134 21.6 22.9554V16.2054H24.3V22.9554Z" fill="#4F5155"/>
<path d="M10.2324 11.4809H13.6074C13.9654 11.4809 14.3088 11.3386 14.562 11.0855C14.8152 10.8323 14.9574 10.4889 14.9574 10.1309C14.9574 9.77282 14.8152 9.42944 14.562 9.17627C14.3088 8.92309 13.9654 8.78086 13.6074 8.78086H12.2574V8.10586C12.2574 7.74782 12.1152 7.40444 11.862 7.15127C11.6088 6.89809 11.2654 6.75586 10.9074 6.75586C10.5494 6.75586 10.206 6.89809 9.95281 7.15127C9.69963 7.40444 9.5574 7.74782 9.5574 8.10586V8.84836C8.73717 9.01491 8.00809 9.48029 7.51169 10.1542C7.01529 10.828 6.78698 11.6623 6.8711 12.495C6.95521 13.3278 7.34574 14.0995 7.96688 14.6605C8.58801 15.2215 9.39544 15.5317 10.2324 15.5309H11.5824C11.7614 15.5309 11.9331 15.602 12.0597 15.7286C12.1863 15.8551 12.2574 16.0268 12.2574 16.2059C12.2574 16.3849 12.1863 16.5566 12.0597 16.6832C11.9331 16.8097 11.7614 16.8809 11.5824 16.8809H8.2074C7.84936 16.8809 7.50598 17.0231 7.25281 17.2763C6.99963 17.5294 6.8574 17.8728 6.8574 18.2309C6.8574 18.5889 6.99963 18.9323 7.25281 19.1855C7.50598 19.4386 7.84936 19.5809 8.2074 19.5809H9.5574V20.2559C9.5574 20.6139 9.69963 20.9573 9.95281 21.2105C10.206 21.4636 10.5494 21.6059 10.9074 21.6059C11.2654 21.6059 11.6088 21.4636 11.862 21.2105C12.1152 20.9573 12.2574 20.6139 12.2574 20.2559V19.5134C13.0776 19.3468 13.8067 18.8814 14.3031 18.2076C14.7995 17.5337 15.0278 16.6994 14.9437 15.8667C14.8596 15.0339 14.4691 14.2622 13.8479 13.7012C13.2268 13.1402 12.4194 12.83 11.5824 12.8309H10.2324C10.0534 12.8309 9.88169 12.7597 9.7551 12.6332C9.62852 12.5066 9.5574 12.3349 9.5574 12.1559C9.5574 11.9768 9.62852 11.8051 9.7551 11.6786C9.88169 11.552 10.0534 11.4809 10.2324 11.4809Z" fill="#707175"/>
</svg>
