<svg width="27" height="27" viewBox="0 0 27 27" fill="none" xmlns="http://www.w3.org/2000/svg">
<path d="M18.1383 6.7179V9.40506H10.0769V26.8716H7.38969V18.8101H4.70253V26.8716H2.01537V16.123H0V9.40506C0 8.69238 0.283111 8.00889 0.787051 7.50495C1.29099 7.00101 1.97448 6.7179 2.68716 6.7179H18.1383ZM8.73327 2.68716C8.73327 3.39984 8.45016 4.08333 7.94622 4.58727C7.44228 5.09121 6.75879 5.37432 6.04611 5.37432C5.33343 5.37432 4.64994 5.09121 4.146 4.58727C3.64206 4.08333 3.35895 3.39984 3.35895 2.68716C3.35895 1.97448 3.64206 1.29099 4.146 0.787051C4.64994 0.283111 5.33343 0 6.04611 0C6.75879 0 7.44228 0.283111 7.94622 0.787051C8.45016 1.29099 8.73327 1.97448 8.73327 2.68716Z" fill="#707175"/>
<path d="M24.3127 20.1537C25.0254 20.1537 25.7089 19.8706 26.2128 19.3667C26.7168 18.8627 26.9999 18.1792 26.9999 17.4665V2.68716C26.9999 1.97448 26.7168 1.29099 26.2128 0.787051C25.7089 0.283111 25.0254 0 24.3127 0H10.1514C10.6216 0.819584 10.8769 1.74665 10.8769 2.68716H24.3127V17.4665H12.2205V20.1537" fill="#4F5155"/>
</svg>
