<svg width="28" height="25" viewBox="0 0 28 25" fill="none" xmlns="http://www.w3.org/2000/svg">
<path d="M26.15 12.447C26.15 5.0355 20.399 0 14 0C7.6685 0 1.85 4.9275 1.85 12.528C1.04 12.987 0.5 13.851 0.5 14.85V17.55C0.5 19.035 1.715 20.25 3.2 20.25H4.55V12.015C4.55 6.7905 8.7755 2.565 14 2.565C19.2245 2.565 23.45 6.7905 23.45 12.015V21.6H12.65V24.3H23.45C24.935 24.3 26.15 23.085 26.15 21.6V19.953C26.9465 19.5345 27.5 18.711 27.5 17.739V14.634C27.5 13.689 26.9465 12.8655 26.15 12.447Z" fill="#4F5155"/>
<path d="M9.9501 14.8504C10.6957 14.8504 11.3001 14.246 11.3001 13.5004C11.3001 12.7548 10.6957 12.1504 9.9501 12.1504C9.20451 12.1504 8.6001 12.7548 8.6001 13.5004C8.6001 14.246 9.20451 14.8504 9.9501 14.8504Z" fill="#707175"/>
<path d="M18.0502 14.8504C18.7958 14.8504 19.4002 14.246 19.4002 13.5004C19.4002 12.7548 18.7958 12.1504 18.0502 12.1504C17.3046 12.1504 16.7002 12.7548 16.7002 13.5004C16.7002 14.246 17.3046 14.8504 18.0502 14.8504Z" fill="#707175"/>
<path d="M22.0999 10.8413C21.778 8.94336 20.795 7.22053 19.3249 5.97775C17.8548 4.73496 15.9925 4.05236 14.0674 4.05078C9.97693 4.05078 5.57593 7.43928 5.92693 12.7583C7.59167 12.0771 9.06196 10.9945 10.2067 9.60709C11.3515 8.21969 12.1352 6.57058 12.4879 4.80678C14.2564 8.35728 17.8879 10.8008 22.0999 10.8413Z" fill="#707175"/>
</svg>
