<svg width="27" height="26" viewBox="0 0 27 26" fill="none" xmlns="http://www.w3.org/2000/svg">
<path d="M27 0H0V8.08907H1.35V22.919C1.35 23.6341 1.63446 24.32 2.14081 24.8256C2.64716 25.3313 3.33392 25.6154 4.05 25.6154H22.95C23.6661 25.6154 24.3528 25.3313 24.8592 24.8256C25.3655 24.32 25.65 23.6341 25.65 22.919V8.08907H27V0ZM2.7 2.69636H24.3V5.39271H2.7V2.69636ZM22.95 22.919H4.05V8.08907H22.95V22.919Z" fill="#4F5155"/>
<path d="M9.69238 10.3848H17.7924C17.7924 11.0999 17.5079 11.7857 17.0016 12.2914C16.4952 12.797 15.8085 13.0811 15.0924 13.0811H12.3924C11.6763 13.0811 10.9895 12.797 10.4832 12.2914C9.97685 11.7857 9.69238 11.0999 9.69238 10.3848Z" fill="#707175"/>
</svg>
