<svg width="27" height="27" viewBox="0 0 27 27" fill="none" xmlns="http://www.w3.org/2000/svg">
<path d="M4.0709 6.95391H19.4518V5.48374H4.0709V6.95391ZM0 24.6533V0H23.5227V11.1145C22.6485 10.8273 21.7526 10.6798 20.8353 10.672C19.9179 10.6641 19.0137 10.7822 18.1228 11.0263H4.0709V12.4964H14.8208C14.0837 13.0071 13.4339 13.6064 12.8713 14.2945C12.3088 14.9825 11.8452 15.7401 11.4806 16.5674H4.07237V18.0375H10.9969C10.891 18.4335 10.8087 18.8329 10.7499 19.2357C10.6911 19.6385 10.6612 20.059 10.6602 20.4971C10.6602 21.1685 10.7303 21.8345 10.8704 22.4951C11.0106 23.1557 11.2213 23.7923 11.5026 24.4048L11.4526 24.4548L9.78398 23.2405L7.80513 24.6533L5.82629 23.2405L3.84744 24.6533L1.86712 23.2405L0 24.6533Z" fill="#4F5155"/>
<path d="M18.4981 23.2589L23.6633 20.019L18.4981 16.7774V23.2589ZM20.3266 26.6923C18.4681 26.6923 16.8915 26.0444 15.5969 24.7487C14.3012 23.4541 13.6533 21.8775 13.6533 20.019C13.6533 18.1605 14.3012 16.5834 15.5969 15.2876C16.8926 13.9919 18.4692 13.3446 20.3266 13.3457C22.184 13.3468 23.7611 13.9941 25.058 15.2876C26.3548 16.5811 27.0021 18.1583 26.9999 20.019C26.9999 21.8764 26.3526 23.453 25.058 24.7487C23.7611 26.0444 22.184 26.6923 20.3266 26.6923Z" fill="#707175"/>
</svg>
