<svg width="28" height="29" viewBox="0 0 28 29" fill="none" xmlns="http://www.w3.org/2000/svg">
<path d="M9.69238 10.3848H17.7924C17.7924 11.0999 17.5079 11.7857 17.0016 12.2914C16.4952 12.797 15.8085 13.0811 15.0924 13.0811H12.3924C11.6763 13.0811 10.9895 12.797 10.4832 12.2914C9.97685 11.7857 9.69238 11.0999 9.69238 10.3848Z" fill="#707175"/>
<path d="M21.54 17C18.4852 17 16 19.4852 16 22.54C16 25.5948 18.4852 28.08 21.54 28.08C24.5948 28.08 27.08 25.5948 27.08 22.54C27.08 19.4852 24.5948 17 21.54 17ZM24.31 23.648H18.77V21.432H24.31V23.648Z" fill="#707175"/>
<path fill-rule="evenodd" clip-rule="evenodd" d="M0 0H27V8.08907H25.65V16.6154L22.95 15.9231V8.08907H4.05V22.919H15.2308L15.9231 25.6154H4.05C3.33392 25.6154 2.64716 25.3313 2.14081 24.8256C1.63446 24.32 1.35 23.6341 1.35 22.919V8.08907H0V0ZM24.3 2.69636H2.7V5.39271H24.3V2.69636Z" fill="#4F5155"/>
</svg>
