<svg width="27" height="28" viewBox="0 0 27 28" fill="none" xmlns="http://www.w3.org/2000/svg">
<path d="M9.69238 10.3848H17.7924C17.7924 11.0999 17.5079 11.7857 17.0016 12.2914C16.4952 12.797 15.8085 13.0811 15.0924 13.0811H12.3924C11.6763 13.0811 10.9895 12.797 10.4832 12.2914C9.97685 11.7857 9.69238 11.0999 9.69238 10.3848Z" fill="#707175"/>
<path d="M21.4613 16.6152C18.4025 16.6152 15.9229 19.0949 15.9229 22.1537C15.9229 25.2125 18.4025 27.6922 21.4613 27.6922C24.5202 27.6922 26.9998 25.2125 26.9998 22.1537C26.9998 19.0949 24.5202 16.6152 21.4613 16.6152ZM21.9396 25.1565V25.9366H21.1934V25.1653C19.969 24.9976 19.4329 23.9916 19.4329 23.9916L20.195 23.3541C20.195 23.3541 20.6816 24.2012 21.5619 24.2012C22.0482 24.2012 22.417 23.9409 22.417 23.4962C22.417 22.4566 19.6162 22.5828 19.6162 20.6542C19.6162 19.8158 20.2792 19.2118 21.193 19.0689V18.2897H21.9392V19.0689C22.5763 19.1528 23.3308 19.4881 23.3308 20.2095V20.7628H22.3416V20.4945C22.3416 20.2179 21.9891 20.0334 21.5947 20.0334C21.0917 20.0334 20.7232 20.2849 20.7232 20.637C20.7232 21.7017 23.524 21.4419 23.524 23.4627C23.524 24.2934 22.9037 25.0136 21.9396 25.1565Z" fill="#707175"/>
<path fill-rule="evenodd" clip-rule="evenodd" d="M0 0H27V8.08907H25.65V16.6154L22.95 15.9231V8.08907H4.05V22.919H15.2308L15.9231 25.6154H4.05C3.33392 25.6154 2.64716 25.3313 2.14081 24.8256C1.63446 24.32 1.35 23.6341 1.35 22.919V8.08907H0V0ZM24.3 2.69636H2.7V5.39271H24.3V2.69636Z" fill="#4F5155"/>
</svg>
