<svg width="27" height="23" viewBox="0 0 27 23" fill="none" xmlns="http://www.w3.org/2000/svg">
<path d="M27 2.5V20.5C27 21.163 26.7366 21.7989 26.2678 22.2678C25.7989 22.7366 25.163 23 24.5 23H2.5C1.83696 23 1.20107 22.7366 0.732233 22.2678C0.263392 21.7989 0 21.163 0 20.5V2.5C0 1.83696 0.263392 1.20107 0.732233 0.732233C1.20107 0.263392 1.83696 0 2.5 0H24.5C25.163 0 25.7989 0.263392 26.2678 0.732233C26.7366 1.20107 27 1.83696 27 2.5ZM24 3H3V20H24V3Z" fill="#4F5155"/>
<path d="M6.00661 13.5613C5.86677 13.4219 5.75582 13.2563 5.68011 13.074C5.6044 12.8917 5.56543 12.6962 5.56543 12.4988C5.56543 12.3013 5.6044 12.1059 5.68011 11.9235C5.75582 11.7412 5.86677 11.5756 6.00661 11.4362L9.00661 8.43625C9.28841 8.15446 9.6706 7.99615 10.0691 7.99615C10.4676 7.99615 10.8498 8.15446 11.1316 8.43625C11.4134 8.71804 11.5717 9.10024 11.5717 9.49875C11.5717 9.89726 11.4134 10.2795 11.1316 10.5612L10.6929 11H17.5679V8.5C17.5679 8.10218 17.7259 7.72064 18.0072 7.43934C18.2885 7.15804 18.67 7 19.0679 7C19.4657 7 19.8472 7.15804 20.1285 7.43934C20.4098 7.72064 20.5679 8.10218 20.5679 8.5V12.5C20.5679 12.8978 20.4098 13.2794 20.1285 13.5607C19.8472 13.842 19.4657 14 19.0679 14H10.6929L11.1329 14.4387C11.4147 14.7205 11.573 15.1027 11.573 15.5012C11.573 15.8998 11.4147 16.282 11.1329 16.5637C10.8511 16.8455 10.4689 17.0039 10.0704 17.0039C9.67185 17.0039 9.28965 16.8455 9.00786 16.5637L6.00661 13.5613Z" fill="#707175"/>
</svg>
