<svg width="27" height="28" viewBox="0 0 27 28" fill="none" xmlns="http://www.w3.org/2000/svg">
<path d="M9.69238 10.3848H17.7924C17.7924 11.0999 17.5079 11.7857 17.0016 12.2914C16.4952 12.797 15.8085 13.0811 15.0924 13.0811H12.3924C11.6763 13.0811 10.9895 12.797 10.4832 12.2914C9.97685 11.7857 9.69238 11.0999 9.69238 10.3848Z" fill="#707175"/>
<path d="M21.4613 25.2306C21.6357 25.2306 21.7819 25.1715 21.9001 25.0534C22.0182 24.9352 22.0771 24.7892 22.0767 24.6152C22.0763 24.4413 22.0172 24.2952 21.8995 24.1771C21.7817 24.0589 21.6357 23.9999 21.4613 23.9999C21.287 23.9999 21.1409 24.0589 21.0232 24.1771C20.9054 24.2952 20.8463 24.4413 20.8459 24.6152C20.8455 24.7892 20.9046 24.9354 21.0232 25.054C21.1417 25.1726 21.2878 25.2314 21.4613 25.2306ZM20.8459 22.7691H22.0767V19.0768H20.8459V22.7691ZM19.1536 27.6922L15.9229 24.4614V19.846L19.1536 16.6152H23.769L26.9998 19.846V24.4614L23.769 27.6922H19.1536Z" fill="#707175"/>
<path fill-rule="evenodd" clip-rule="evenodd" d="M0 0H27V8.08907H25.65V15.9231H22.95V8.08907H4.05V22.919H15.2308V25.6154H4.05C3.33392 25.6154 2.64716 25.3313 2.14081 24.8256C1.63446 24.32 1.35 23.6341 1.35 22.919V8.08907H0V0ZM24.3 2.69636H2.7V5.39271H24.3V2.69636Z" fill="#4F5155"/>
</svg>
