<svg width="27" height="28" viewBox="0 0 27 28" fill="none" xmlns="http://www.w3.org/2000/svg">
<path d="M9.69238 10.3848H17.7924C17.7924 11.0999 17.5079 11.7857 17.0016 12.2914C16.4952 12.797 15.8085 13.0811 15.0924 13.0811H12.3924C11.6763 13.0811 10.9895 12.797 10.4832 12.2914C9.97685 11.7857 9.69238 11.0999 9.69238 10.3848Z" fill="#707175"/>
<path d="M26.0767 16.6152H16.8459C16.6011 16.6152 16.3663 16.7125 16.1932 16.8856C16.0201 17.0587 15.9229 17.2935 15.9229 17.5383V26.7691C15.9229 27.0139 16.0201 27.2487 16.1932 27.4218C16.3663 27.5949 16.6011 27.6922 16.8459 27.6922H26.0767C26.3215 27.6922 26.5563 27.5949 26.7294 27.4218C26.9025 27.2487 26.9998 27.0139 26.9998 26.7691V17.5383C26.9998 17.2935 26.9025 17.0587 26.7294 16.8856C26.5563 16.7125 26.3215 16.6152 26.0767 16.6152ZM24.6921 22.6152H21.9229V25.3845C21.9229 25.5069 21.8742 25.6243 21.7877 25.7108C21.7011 25.7974 21.5837 25.846 21.4613 25.846C21.3389 25.846 21.2215 25.7974 21.135 25.7108C21.0484 25.6243 20.9998 25.5069 20.9998 25.3845V22.6152H18.2305C18.1081 22.6152 17.9907 22.5666 17.9042 22.4801C17.8176 22.3935 17.769 22.2761 17.769 22.1537C17.769 22.0313 17.8176 21.9139 17.9042 21.8273C17.9907 21.7408 18.1081 21.6922 18.2305 21.6922H20.9998V18.9229C20.9998 18.8005 21.0484 18.6831 21.135 18.5966C21.2215 18.51 21.3389 18.4614 21.4613 18.4614C21.5837 18.4614 21.7011 18.51 21.7877 18.5966C21.8742 18.6831 21.9229 18.8005 21.9229 18.9229V21.6922H24.6921C24.8145 21.6922 24.9319 21.7408 25.0184 21.8273C25.105 21.9139 25.1536 22.0313 25.1536 22.1537C25.1536 22.2761 25.105 22.3935 25.0184 22.4801C24.9319 22.5666 24.8145 22.6152 24.6921 22.6152Z" fill="#707175"/>
<path fill-rule="evenodd" clip-rule="evenodd" d="M0 0H27V8.08907H25.65V15.9231H22.95V8.08907H4.05V22.919H15.2308V25.6154H4.05C3.33392 25.6154 2.64716 25.3313 2.14081 24.8256C1.63446 24.32 1.35 23.6341 1.35 22.919V8.08907H0V0ZM24.3 2.69636H2.7V5.39271H24.3V2.69636Z" fill="#4F5155"/>
</svg>
