<svg width="27" height="26" viewBox="0 0 27 26" fill="none" xmlns="http://www.w3.org/2000/svg">
<path d="M3.96969 7.98527H19.8484V5.32351H3.96969V7.98527ZM0 25.2867V0H23.8181V11.5454C23.2006 11.2348 22.5553 11.0072 21.8822 10.8626C21.2092 10.718 20.5312 10.6461 19.8484 10.647H3.96969V13.3088H13.3646C12.9897 13.6859 12.6426 14.0962 12.3232 14.5398C12.0039 14.9835 11.7225 15.4604 11.479 15.9705H3.96969V18.6323H10.6851C10.641 18.8541 10.6136 19.0706 10.603 19.2818C10.5924 19.4929 10.5867 19.7201 10.5858 19.9632C10.5858 20.8948 10.7129 21.7878 10.9669 22.6422C11.221 23.4966 11.6012 24.3116 12.1075 25.087L11.9091 25.2867L9.92422 23.2904L7.93937 25.2867L5.95453 23.2904L3.96969 25.2867L1.98484 23.2904L0 25.2867Z" fill="#4F5155"/>
<path d="M19.4244 22.3461L24.0226 17.7546L22.6332 16.3572L19.4244 19.518L18.1342 18.2204L16.7448 19.6511L19.4244 22.3461ZM20.3837 26.006C18.5533 26.006 16.9932 25.357 15.7035 24.059C14.4138 22.7609 13.7685 21.1918 13.7676 19.3517C13.7667 17.5115 14.412 15.9424 15.7035 14.6443C16.9949 13.3463 18.555 12.6973 20.3837 12.6973C22.2124 12.6973 23.773 13.3463 25.0653 14.6443C26.3577 15.9424 27.0025 17.5115 26.9999 19.3517C26.9972 21.1918 26.3519 22.7614 25.064 24.0603C23.776 25.3592 22.216 26.0078 20.3837 26.006Z" fill="#707175"/>
</svg>
