<svg width="29" height="29" viewBox="0 0 29 29" fill="none" xmlns="http://www.w3.org/2000/svg">
<path d="M4.6563 9.99542C4.14961 10.2053 3.69401 10.6595 2.78555 11.5693C1.87434 12.4805 1.42012 12.9348 1.21026 13.4415C1.07145 13.7765 1 14.1356 1 14.4983C1 14.861 1.07145 15.2201 1.21026 15.5552C1.42012 16.0633 1.87572 16.5175 2.78417 17.4273C3.69539 18.3371 4.14961 18.7914 4.6563 19.0012C4.99136 19.14 5.35049 19.2115 5.71317 19.2115C6.07585 19.2115 6.43497 19.14 6.77003 19.0012C7.2781 18.7914 7.73233 18.3371 8.64216 17.4273C9.55337 16.5175 10.0062 16.0633 10.2161 15.5552C10.496 14.8789 10.496 14.1191 10.2161 13.4428C10.0062 12.9348 9.55337 12.4792 8.64216 11.5693C7.73233 10.6595 7.2781 10.2053 6.77003 9.99542C6.09375 9.71545 5.33259 9.71545 4.6563 9.99542ZM20.3581 11.5693C19.4483 12.4805 18.9941 12.9348 18.7842 13.4415C18.6454 13.7765 18.574 14.1356 18.574 14.4983C18.574 14.861 18.6454 15.2201 18.7842 15.5552C18.9941 16.0633 19.4483 16.5175 20.3581 17.4273C21.268 18.3371 21.7236 18.7914 22.2303 19.0012C22.9065 19.2812 23.6663 19.2812 24.3426 19.0012C24.8507 18.7914 25.3063 18.3371 26.2161 17.4273C27.1259 16.5175 27.5788 16.0633 27.79 15.5552C28.07 14.8789 28.07 14.1191 27.79 13.4428C27.5788 12.9348 27.1259 12.4792 26.2161 11.5693C25.3049 10.6595 24.8507 10.2053 24.344 9.99542C24.0089 9.8566 23.6498 9.78516 23.2871 9.78516C22.9244 9.78516 22.5653 9.8566 22.2303 9.99542C21.7236 10.2053 21.268 10.6595 20.3581 11.5693Z" stroke="white" stroke-width="2" stroke-linecap="round" stroke-linejoin="round"/>
<path d="M13.6563 1.20998C13.1482 1.41983 12.694 1.87544 11.7842 2.78389C10.8743 3.6951 10.4187 4.14932 10.2103 4.65601C10.0714 4.99107 10 5.3502 10 5.71288C10 6.07556 10.0714 6.43469 10.2103 6.76975C10.4187 7.27782 10.873 7.73204 11.7842 8.64187C12.6926 9.5517 13.1482 10.0073 13.6563 10.2158C14.3326 10.4958 15.0924 10.4958 15.7687 10.2158C16.2767 10.0073 16.7309 9.55308 17.6408 8.64187C18.552 7.73204 19.0048 7.27782 19.2147 6.76975C19.4947 6.09346 19.4947 5.33368 19.2147 4.65739C19.0048 4.14932 18.552 3.6951 17.6408 2.78527C16.7309 1.87406 16.2767 1.41983 15.7687 1.20998C15.0924 0.930007 14.3326 0.930007 13.6563 1.20998ZM13.6563 18.7825C13.1482 18.9924 12.694 19.448 11.7842 20.3565C10.8743 21.2677 10.4187 21.7219 10.2103 22.23C9.93029 22.9063 9.93029 23.666 10.2103 24.3423C10.4187 24.8504 10.873 25.3046 11.7842 26.2144C12.6926 27.1243 13.1482 27.5799 13.6563 27.7884C14.3326 28.0683 15.0924 28.0683 15.7687 27.7884C16.2767 27.5799 16.7309 27.1257 17.6408 26.2144C18.552 25.3046 19.0048 24.8504 19.2147 24.3423C19.495 23.6658 19.495 22.9065 19.2147 22.23C19.0048 21.7219 18.552 21.2663 17.6408 20.3578C16.7309 19.4466 16.2767 18.9924 15.7687 18.7825C15.0924 18.5026 14.3326 18.5026 13.6563 18.7825Z" stroke="#98BEFF" stroke-width="2" stroke-linecap="round" stroke-linejoin="round"/>
</svg>
