<svg width="29" height="28" viewBox="0 0 29 28" fill="none" xmlns="http://www.w3.org/2000/svg">
<g filter="url(#filter0_d_1098_199)">
<path d="M14.675 18C13.5438 18 12.4589 17.5787 11.659 16.8288C10.859 16.0788 10.4095 15.0617 10.4092 14.001C10.4089 12.9403 10.8579 11.9229 11.6575 11.1726C12.457 10.4223 13.5417 10.0005 14.6728 10C15.804 9.99947 16.8891 10.4202 17.6895 11.1698C18.4898 11.9194 18.9399 12.9363 18.9408 13.997C18.9416 15.0577 18.4931 16.0753 17.694 16.826C16.8948 17.5766 15.8104 17.9989 14.6792 18H14.675Z" fill="#0091D0"/>
<path d="M14.675 18C13.5438 18 12.4589 17.5787 11.659 16.8288C10.859 16.0788 10.4095 15.0617 10.4092 14.001C10.4089 12.9403 10.8579 11.9229 11.6575 11.1726C12.457 10.4223 13.5417 10.0005 14.6728 10C15.804 9.99947 16.8891 10.4202 17.6895 11.1698C18.4898 11.9194 18.9399 12.9363 18.9408 13.997C18.9416 15.0577 18.4931 16.0753 17.694 16.826C16.8948 17.5766 15.8104 17.9989 14.6792 18H14.675Z" stroke="white"/>
</g>
<defs>
<filter id="filter0_d_1098_199" x="0.40918" y="0" width="28.5315" height="28" filterUnits="userSpaceOnUse" color-interpolation-filters="sRGB">
<feFlood flood-opacity="0" result="BackgroundImageFix"/>
<feColorMatrix in="SourceAlpha" type="matrix" values="0 0 0 0 0 0 0 0 0 0 0 0 0 0 0 0 0 0 127 0" result="hardAlpha"/>
<feOffset/>
<feGaussianBlur stdDeviation="5"/>
<feComposite in2="hardAlpha" operator="out"/>
<feColorMatrix type="matrix" values="0 0 0 0 0 0 0 0 0 0.568627 0 0 0 0 0.815686 0 0 0 1 0"/>
<feBlend mode="normal" in2="BackgroundImageFix" result="effect1_dropShadow_1098_199"/>
<feBlend mode="normal" in="SourceGraphic" in2="effect1_dropShadow_1098_199" result="shape"/>
</filter>
</defs>
</svg>
