<svg width="29" height="28" viewBox="0 0 29 28" fill="none" xmlns="http://www.w3.org/2000/svg">
<g filter="url(#filter0_d_1098_219)">
<path d="M14.5046 18C13.3734 18 12.2885 17.5787 11.4886 16.8288C10.6886 16.0788 10.2391 15.0617 10.2388 14.001C10.2385 12.9403 10.6875 11.9229 11.487 11.1726C12.2866 10.4223 13.3712 10.0005 14.5024 10C15.6336 9.99947 16.7187 10.4202 17.519 11.1698C18.3194 11.9194 18.7695 12.9363 18.7704 13.997C18.7712 15.0577 18.3227 16.0753 17.5236 16.826C16.7244 17.5766 15.64 17.9989 14.5088 18H14.5046Z" fill="#0091D0"/>
<path d="M14.5046 18C13.3734 18 12.2885 17.5787 11.4886 16.8288C10.6886 16.0788 10.2391 15.0617 10.2388 14.001C10.2385 12.9403 10.6875 11.9229 11.487 11.1726C12.2866 10.4223 13.3712 10.0005 14.5024 10C15.6336 9.99947 16.7187 10.4202 17.519 11.1698C18.3194 11.9194 18.7695 12.9363 18.7704 13.997C18.7712 15.0577 18.3227 16.0753 17.5236 16.826C16.7244 17.5766 15.64 17.9989 14.5088 18H14.5046Z" stroke="white"/>
</g>
<defs>
<filter id="filter0_d_1098_219" x="0.23877" y="0" width="28.5315" height="28" filterUnits="userSpaceOnUse" color-interpolation-filters="sRGB">
<feFlood flood-opacity="0" result="BackgroundImageFix"/>
<feColorMatrix in="SourceAlpha" type="matrix" values="0 0 0 0 0 0 0 0 0 0 0 0 0 0 0 0 0 0 127 0" result="hardAlpha"/>
<feOffset/>
<feGaussianBlur stdDeviation="5"/>
<feComposite in2="hardAlpha" operator="out"/>
<feColorMatrix type="matrix" values="0 0 0 0 0 0 0 0 0 0.568627 0 0 0 0 0.815686 0 0 0 1 0"/>
<feBlend mode="normal" in2="BackgroundImageFix" result="effect1_dropShadow_1098_219"/>
<feBlend mode="normal" in="SourceGraphic" in2="effect1_dropShadow_1098_219" result="shape"/>
</filter>
</defs>
</svg>
