<svg width="29" height="28" viewBox="0 0 29 28" fill="none" xmlns="http://www.w3.org/2000/svg">
<g filter="url(#filter0_d_1098_197)">
<path d="M14.4924 18C13.3612 18 12.2763 17.5787 11.4764 16.8288C10.6764 16.0788 10.2268 15.0617 10.2266 14.001C10.2263 12.9403 10.6753 11.9229 11.4748 11.1726C12.2744 10.4223 13.359 10.0005 14.4902 10C15.6214 9.99947 16.7065 10.4202 17.5068 11.1698C18.3072 11.9194 18.7573 12.9363 18.7581 13.997C18.759 15.0577 18.3105 16.0753 17.5114 16.826C16.7122 17.5766 15.6278 17.9989 14.4966 18H14.4924Z" fill="#0091D0"/>
<path d="M14.4924 18C13.3612 18 12.2763 17.5787 11.4764 16.8288C10.6764 16.0788 10.2268 15.0617 10.2266 14.001C10.2263 12.9403 10.6753 11.9229 11.4748 11.1726C12.2744 10.4223 13.359 10.0005 14.4902 10C15.6214 9.99947 16.7065 10.4202 17.5068 11.1698C18.3072 11.9194 18.7573 12.9363 18.7581 13.997C18.759 15.0577 18.3105 16.0753 17.5114 16.826C16.7122 17.5766 15.6278 17.9989 14.4966 18H14.4924Z" stroke="white"/>
</g>
<defs>
<filter id="filter0_d_1098_197" x="0.226562" y="0" width="28.5315" height="28" filterUnits="userSpaceOnUse" color-interpolation-filters="sRGB">
<feFlood flood-opacity="0" result="BackgroundImageFix"/>
<feColorMatrix in="SourceAlpha" type="matrix" values="0 0 0 0 0 0 0 0 0 0 0 0 0 0 0 0 0 0 127 0" result="hardAlpha"/>
<feOffset/>
<feGaussianBlur stdDeviation="5"/>
<feComposite in2="hardAlpha" operator="out"/>
<feColorMatrix type="matrix" values="0 0 0 0 0 0 0 0 0 0.568627 0 0 0 0 0.815686 0 0 0 1 0"/>
<feBlend mode="normal" in2="BackgroundImageFix" result="effect1_dropShadow_1098_197"/>
<feBlend mode="normal" in="SourceGraphic" in2="effect1_dropShadow_1098_197" result="shape"/>
</filter>
</defs>
</svg>
