<svg width="29" height="28" viewBox="0 0 29 28" fill="none" xmlns="http://www.w3.org/2000/svg">
<g filter="url(#filter0_d_1098_217)">
<path d="M14.3215 18C13.1903 18 12.1054 17.5787 11.3055 16.8288C10.5055 16.0788 10.0559 15.0617 10.0557 14.001C10.0554 12.9403 10.5044 11.9229 11.3039 11.1726C12.1035 10.4223 13.1881 10.0005 14.3193 10C15.4505 9.99947 16.5356 10.4202 17.3359 11.1698C18.1363 11.9194 18.5864 12.9363 18.5872 13.997C18.5881 15.0577 18.1396 16.0753 17.3405 16.826C16.5413 17.5766 15.4569 17.9989 14.3257 18H14.3215Z" fill="#0091D0"/>
<path d="M14.3215 18C13.1903 18 12.1054 17.5787 11.3055 16.8288C10.5055 16.0788 10.0559 15.0617 10.0557 14.001C10.0554 12.9403 10.5044 11.9229 11.3039 11.1726C12.1035 10.4223 13.1881 10.0005 14.3193 10C15.4505 9.99947 16.5356 10.4202 17.3359 11.1698C18.1363 11.9194 18.5864 12.9363 18.5872 13.997C18.5881 15.0577 18.1396 16.0753 17.3405 16.826C16.5413 17.5766 15.4569 17.9989 14.3257 18H14.3215Z" stroke="white"/>
</g>
<defs>
<filter id="filter0_d_1098_217" x="0.0556641" y="0" width="28.5315" height="28" filterUnits="userSpaceOnUse" color-interpolation-filters="sRGB">
<feFlood flood-opacity="0" result="BackgroundImageFix"/>
<feColorMatrix in="SourceAlpha" type="matrix" values="0 0 0 0 0 0 0 0 0 0 0 0 0 0 0 0 0 0 127 0" result="hardAlpha"/>
<feOffset/>
<feGaussianBlur stdDeviation="5"/>
<feComposite in2="hardAlpha" operator="out"/>
<feColorMatrix type="matrix" values="0 0 0 0 0 0 0 0 0 0.568627 0 0 0 0 0.815686 0 0 0 1 0"/>
<feBlend mode="normal" in2="BackgroundImageFix" result="effect1_dropShadow_1098_217"/>
<feBlend mode="normal" in="SourceGraphic" in2="effect1_dropShadow_1098_217" result="shape"/>
</filter>
</defs>
</svg>
