<svg width="29" height="28" viewBox="0 0 29 28" fill="none" xmlns="http://www.w3.org/2000/svg">
<g filter="url(#filter0_d_1098_195)">
<path d="M14.3092 18C13.1781 18 12.0932 17.5787 11.2933 16.8288C10.4933 16.0788 10.0437 15.0617 10.0435 14.001C10.0432 12.9403 10.4922 11.9229 11.2917 11.1726C12.0913 10.4223 13.1759 10.0005 14.3071 10C15.4383 9.99947 16.5234 10.4202 17.3237 11.1698C18.1241 11.9194 18.5742 12.9363 18.575 13.997C18.5759 15.0577 18.1274 16.0753 17.3283 16.826C16.5291 17.5766 15.4447 17.9989 14.3135 18H14.3092Z" fill="#0091D0"/>
<path d="M14.3092 18C13.1781 18 12.0932 17.5787 11.2933 16.8288C10.4933 16.0788 10.0437 15.0617 10.0435 14.001C10.0432 12.9403 10.4922 11.9229 11.2917 11.1726C12.0913 10.4223 13.1759 10.0005 14.3071 10C15.4383 9.99947 16.5234 10.4202 17.3237 11.1698C18.1241 11.9194 18.5742 12.9363 18.575 13.997C18.5759 15.0577 18.1274 16.0753 17.3283 16.826C16.5291 17.5766 15.4447 17.9989 14.3135 18H14.3092Z" stroke="white"/>
</g>
<defs>
<filter id="filter0_d_1098_195" x="0.043457" y="0" width="28.5315" height="28" filterUnits="userSpaceOnUse" color-interpolation-filters="sRGB">
<feFlood flood-opacity="0" result="BackgroundImageFix"/>
<feColorMatrix in="SourceAlpha" type="matrix" values="0 0 0 0 0 0 0 0 0 0 0 0 0 0 0 0 0 0 127 0" result="hardAlpha"/>
<feOffset/>
<feGaussianBlur stdDeviation="5"/>
<feComposite in2="hardAlpha" operator="out"/>
<feColorMatrix type="matrix" values="0 0 0 0 0 0 0 0 0 0.568627 0 0 0 0 0.815686 0 0 0 1 0"/>
<feBlend mode="normal" in2="BackgroundImageFix" result="effect1_dropShadow_1098_195"/>
<feBlend mode="normal" in="SourceGraphic" in2="effect1_dropShadow_1098_195" result="shape"/>
</filter>
</defs>
</svg>
