<svg width="30" height="28" viewBox="0 0 30 28" fill="none" xmlns="http://www.w3.org/2000/svg">
<g filter="url(#filter0_d_1098_196)">
<path d="M14.9006 18C13.7694 18 12.6845 17.5787 11.8846 16.8288C11.0846 16.0788 10.635 15.0617 10.6348 14.001C10.6345 12.9403 11.0835 11.9229 11.8831 11.1726C12.6826 10.4223 13.7673 10.0005 14.8984 10C16.0296 9.99947 17.1147 10.4202 17.915 11.1698C18.7154 11.9194 19.1655 12.9363 19.1663 13.997C19.1672 15.0577 18.7187 16.0753 17.9196 16.826C17.1204 17.5766 16.036 17.9989 14.9048 18H14.9006Z" fill="#0091D0"/>
<path d="M14.9006 18C13.7694 18 12.6845 17.5787 11.8846 16.8288C11.0846 16.0788 10.635 15.0617 10.6348 14.001C10.6345 12.9403 11.0835 11.9229 11.8831 11.1726C12.6826 10.4223 13.7673 10.0005 14.8984 10C16.0296 9.99947 17.1147 10.4202 17.915 11.1698C18.7154 11.9194 19.1655 12.9363 19.1663 13.997C19.1672 15.0577 18.7187 16.0753 17.9196 16.826C17.1204 17.5766 16.036 17.9989 14.9048 18H14.9006Z" stroke="white"/>
</g>
<defs>
<filter id="filter0_d_1098_196" x="0.634766" y="0" width="28.5315" height="28" filterUnits="userSpaceOnUse" color-interpolation-filters="sRGB">
<feFlood flood-opacity="0" result="BackgroundImageFix"/>
<feColorMatrix in="SourceAlpha" type="matrix" values="0 0 0 0 0 0 0 0 0 0 0 0 0 0 0 0 0 0 127 0" result="hardAlpha"/>
<feOffset/>
<feGaussianBlur stdDeviation="5"/>
<feComposite in2="hardAlpha" operator="out"/>
<feColorMatrix type="matrix" values="0 0 0 0 0 0 0 0 0 0.568627 0 0 0 0 0.815686 0 0 0 1 0"/>
<feBlend mode="normal" in2="BackgroundImageFix" result="effect1_dropShadow_1098_196"/>
<feBlend mode="normal" in="SourceGraphic" in2="effect1_dropShadow_1098_196" result="shape"/>
</filter>
</defs>
</svg>
