<svg width="30" height="28" viewBox="0 0 30 28" fill="none" xmlns="http://www.w3.org/2000/svg">
<g filter="url(#filter0_d_1098_206)">
<path d="M14.8156 18C13.6844 18 12.5996 17.5787 11.7996 16.8288C10.9996 16.0788 10.5501 15.0617 10.5498 14.001C10.5495 12.9403 10.9985 11.9229 11.7981 11.1726C12.5977 10.4223 13.6823 10.0005 14.8135 10C15.9446 9.99947 17.0297 10.4202 17.8301 11.1698C18.6304 11.9194 19.0805 12.9363 19.0814 13.997C19.0822 15.0577 18.6338 16.0753 17.8346 16.826C17.0354 17.5766 15.951 17.9989 14.8199 18H14.8156Z" fill="#0091D0"/>
<path d="M14.8156 18C13.6844 18 12.5996 17.5787 11.7996 16.8288C10.9996 16.0788 10.5501 15.0617 10.5498 14.001C10.5495 12.9403 10.9985 11.9229 11.7981 11.1726C12.5977 10.4223 13.6823 10.0005 14.8135 10C15.9446 9.99947 17.0297 10.4202 17.8301 11.1698C18.6304 11.9194 19.0805 12.9363 19.0814 13.997C19.0822 15.0577 18.6338 16.0753 17.8346 16.826C17.0354 17.5766 15.951 17.9989 14.8199 18H14.8156Z" stroke="white"/>
</g>
<defs>
<filter id="filter0_d_1098_206" x="0.549805" y="0" width="28.5315" height="28" filterUnits="userSpaceOnUse" color-interpolation-filters="sRGB">
<feFlood flood-opacity="0" result="BackgroundImageFix"/>
<feColorMatrix in="SourceAlpha" type="matrix" values="0 0 0 0 0 0 0 0 0 0 0 0 0 0 0 0 0 0 127 0" result="hardAlpha"/>
<feOffset/>
<feGaussianBlur stdDeviation="5"/>
<feComposite in2="hardAlpha" operator="out"/>
<feColorMatrix type="matrix" values="0 0 0 0 0 0 0 0 0 0.568627 0 0 0 0 0.815686 0 0 0 1 0"/>
<feBlend mode="normal" in2="BackgroundImageFix" result="effect1_dropShadow_1098_206"/>
<feBlend mode="normal" in="SourceGraphic" in2="effect1_dropShadow_1098_206" result="shape"/>
</filter>
</defs>
</svg>
