<svg width="29" height="28" viewBox="0 0 29 28" fill="none" xmlns="http://www.w3.org/2000/svg">
<g filter="url(#filter0_d_1098_222)">
<path d="M14.279 18C13.1478 18 12.063 17.5787 11.263 16.8288C10.463 16.0788 10.0135 15.0617 10.0132 14.001C10.0129 12.9403 10.4619 11.9229 11.2615 11.1726C12.0611 10.4223 13.1457 10.0005 14.2768 10C15.408 9.99947 16.4931 10.4202 17.2935 11.1698C18.0938 11.9194 18.5439 12.9363 18.5448 13.997C18.5456 15.0577 18.0971 16.0753 17.298 16.826C16.4988 17.5766 15.4144 17.9989 14.2833 18H14.279Z" fill="#0091D0"/>
<path d="M14.279 18C13.1478 18 12.063 17.5787 11.263 16.8288C10.463 16.0788 10.0135 15.0617 10.0132 14.001C10.0129 12.9403 10.4619 11.9229 11.2615 11.1726C12.0611 10.4223 13.1457 10.0005 14.2768 10C15.408 9.99947 16.4931 10.4202 17.2935 11.1698C18.0938 11.9194 18.5439 12.9363 18.5448 13.997C18.5456 15.0577 18.0971 16.0753 17.298 16.826C16.4988 17.5766 15.4144 17.9989 14.2833 18H14.279Z" stroke="white"/>
</g>
<defs>
<filter id="filter0_d_1098_222" x="0.0131836" y="0" width="28.5315" height="28" filterUnits="userSpaceOnUse" color-interpolation-filters="sRGB">
<feFlood flood-opacity="0" result="BackgroundImageFix"/>
<feColorMatrix in="SourceAlpha" type="matrix" values="0 0 0 0 0 0 0 0 0 0 0 0 0 0 0 0 0 0 127 0" result="hardAlpha"/>
<feOffset/>
<feGaussianBlur stdDeviation="5"/>
<feComposite in2="hardAlpha" operator="out"/>
<feColorMatrix type="matrix" values="0 0 0 0 0 0 0 0 0 0.568627 0 0 0 0 0.815686 0 0 0 1 0"/>
<feBlend mode="normal" in2="BackgroundImageFix" result="effect1_dropShadow_1098_222"/>
<feBlend mode="normal" in="SourceGraphic" in2="effect1_dropShadow_1098_222" result="shape"/>
</filter>
</defs>
</svg>
