<svg width="29" height="28" viewBox="0 0 29 28" fill="none" xmlns="http://www.w3.org/2000/svg">
<g filter="url(#filter0_d_1098_194)">
<path d="M14.7179 18C13.5868 18 12.5019 17.5787 11.7019 16.8288C10.902 16.0788 10.4524 15.0617 10.4521 14.001C10.4519 12.9403 10.9009 11.9229 11.7004 11.1726C12.5 10.4223 13.5846 10.0005 14.7158 10C15.847 9.99947 16.9321 10.4202 17.7324 11.1698C18.5328 11.9194 18.9829 12.9363 18.9837 13.997C18.9846 15.0577 18.5361 16.0753 17.7369 16.826C16.9378 17.5766 15.8534 17.9989 14.7222 18H14.7179Z" fill="#0091D0"/>
<path d="M14.7179 18C13.5868 18 12.5019 17.5787 11.7019 16.8288C10.902 16.0788 10.4524 15.0617 10.4521 14.001C10.4519 12.9403 10.9009 11.9229 11.7004 11.1726C12.5 10.4223 13.5846 10.0005 14.7158 10C15.847 9.99947 16.9321 10.4202 17.7324 11.1698C18.5328 11.9194 18.9829 12.9363 18.9837 13.997C18.9846 15.0577 18.5361 16.0753 17.7369 16.826C16.9378 17.5766 15.8534 17.9989 14.7222 18H14.7179Z" stroke="white"/>
</g>
<defs>
<filter id="filter0_d_1098_194" x="0.452148" y="0" width="28.5315" height="28" filterUnits="userSpaceOnUse" color-interpolation-filters="sRGB">
<feFlood flood-opacity="0" result="BackgroundImageFix"/>
<feColorMatrix in="SourceAlpha" type="matrix" values="0 0 0 0 0 0 0 0 0 0 0 0 0 0 0 0 0 0 127 0" result="hardAlpha"/>
<feOffset/>
<feGaussianBlur stdDeviation="5"/>
<feComposite in2="hardAlpha" operator="out"/>
<feColorMatrix type="matrix" values="0 0 0 0 0 0 0 0 0 0.568627 0 0 0 0 0.815686 0 0 0 1 0"/>
<feBlend mode="normal" in2="BackgroundImageFix" result="effect1_dropShadow_1098_194"/>
<feBlend mode="normal" in="SourceGraphic" in2="effect1_dropShadow_1098_194" result="shape"/>
</filter>
</defs>
</svg>
