<svg width="30" height="28" viewBox="0 0 30 28" fill="none" xmlns="http://www.w3.org/2000/svg">
<g filter="url(#filter0_d_1098_218)">
<path d="M14.9133 18C13.7821 18 12.6972 17.5787 11.8973 16.8288C11.0973 16.0788 10.6477 15.0617 10.6475 14.001C10.6472 12.9403 11.0962 11.9229 11.8957 11.1726C12.6953 10.4223 13.7799 10.0005 14.9111 10C16.0423 9.99947 17.1274 10.4202 17.9277 11.1698C18.7281 11.9194 19.1782 12.9363 19.179 13.997C19.1799 15.0577 18.7314 16.0753 17.9323 16.826C17.1331 17.5766 16.0487 17.9989 14.9175 18H14.9133Z" fill="#0091D0"/>
<path d="M14.9133 18C13.7821 18 12.6972 17.5787 11.8973 16.8288C11.0973 16.0788 10.6477 15.0617 10.6475 14.001C10.6472 12.9403 11.0962 11.9229 11.8957 11.1726C12.6953 10.4223 13.7799 10.0005 14.9111 10C16.0423 9.99947 17.1274 10.4202 17.9277 11.1698C18.7281 11.9194 19.1782 12.9363 19.179 13.997C19.1799 15.0577 18.7314 16.0753 17.9323 16.826C17.1331 17.5766 16.0487 17.9989 14.9175 18H14.9133Z" stroke="white"/>
</g>
<defs>
<filter id="filter0_d_1098_218" x="0.647461" y="0" width="28.5315" height="28" filterUnits="userSpaceOnUse" color-interpolation-filters="sRGB">
<feFlood flood-opacity="0" result="BackgroundImageFix"/>
<feColorMatrix in="SourceAlpha" type="matrix" values="0 0 0 0 0 0 0 0 0 0 0 0 0 0 0 0 0 0 127 0" result="hardAlpha"/>
<feOffset/>
<feGaussianBlur stdDeviation="5"/>
<feComposite in2="hardAlpha" operator="out"/>
<feColorMatrix type="matrix" values="0 0 0 0 0 0 0 0 0 0.568627 0 0 0 0 0.815686 0 0 0 1 0"/>
<feBlend mode="normal" in2="BackgroundImageFix" result="effect1_dropShadow_1098_218"/>
<feBlend mode="normal" in="SourceGraphic" in2="effect1_dropShadow_1098_218" result="shape"/>
</filter>
</defs>
</svg>
