<svg width="30" height="28" viewBox="0 0 30 28" fill="none" xmlns="http://www.w3.org/2000/svg">
<g filter="url(#filter0_d_1098_205)">
<path d="M15.2238 18C14.0926 18 13.0078 17.5787 12.2078 16.8288C11.4078 16.0788 10.9583 15.0617 10.958 14.001C10.9577 12.9403 11.4067 11.9229 12.2063 11.1726C13.0059 10.4223 14.0905 10.0005 15.2217 10C16.3528 9.99947 17.4379 10.4202 18.2383 11.1698C19.0386 11.9194 19.4887 12.9363 19.4896 13.997C19.4904 15.0577 19.042 16.0753 18.2428 16.826C17.4436 17.5766 16.3592 17.9989 15.2281 18H15.2238Z" fill="#0091D0"/>
<path d="M15.2238 18C14.0926 18 13.0078 17.5787 12.2078 16.8288C11.4078 16.0788 10.9583 15.0617 10.958 14.001C10.9577 12.9403 11.4067 11.9229 12.2063 11.1726C13.0059 10.4223 14.0905 10.0005 15.2217 10C16.3528 9.99947 17.4379 10.4202 18.2383 11.1698C19.0386 11.9194 19.4887 12.9363 19.4896 13.997C19.4904 15.0577 19.042 16.0753 18.2428 16.826C17.4436 17.5766 16.3592 17.9989 15.2281 18H15.2238Z" stroke="white"/>
</g>
<defs>
<filter id="filter0_d_1098_205" x="0.958008" y="0" width="28.5315" height="28" filterUnits="userSpaceOnUse" color-interpolation-filters="sRGB">
<feFlood flood-opacity="0" result="BackgroundImageFix"/>
<feColorMatrix in="SourceAlpha" type="matrix" values="0 0 0 0 0 0 0 0 0 0 0 0 0 0 0 0 0 0 127 0" result="hardAlpha"/>
<feOffset/>
<feGaussianBlur stdDeviation="5"/>
<feComposite in2="hardAlpha" operator="out"/>
<feColorMatrix type="matrix" values="0 0 0 0 0 0 0 0 0 0.568627 0 0 0 0 0.815686 0 0 0 1 0"/>
<feBlend mode="normal" in2="BackgroundImageFix" result="effect1_dropShadow_1098_205"/>
<feBlend mode="normal" in="SourceGraphic" in2="effect1_dropShadow_1098_205" result="shape"/>
</filter>
</defs>
</svg>
