<svg width="29" height="28" viewBox="0 0 29 28" fill="none" xmlns="http://www.w3.org/2000/svg">
<g filter="url(#filter0_d_1098_204)">
<path d="M14.6325 18C13.5013 18 12.4165 17.5787 11.6165 16.8288C10.8165 16.0788 10.367 15.0617 10.3667 14.001C10.3664 12.9403 10.8154 11.9229 11.615 11.1726C12.4146 10.4223 13.4992 10.0005 14.6304 10C15.7615 9.99947 16.8466 10.4202 17.647 11.1698C18.4473 11.9194 18.8974 12.9363 18.8983 13.997C18.8991 15.0577 18.4507 16.0753 17.6515 16.826C16.8523 17.5766 15.7679 17.9989 14.6368 18H14.6325Z" fill="#0091D0"/>
<path d="M14.6325 18C13.5013 18 12.4165 17.5787 11.6165 16.8288C10.8165 16.0788 10.367 15.0617 10.3667 14.001C10.3664 12.9403 10.8154 11.9229 11.615 11.1726C12.4146 10.4223 13.4992 10.0005 14.6304 10C15.7615 9.99947 16.8466 10.4202 17.647 11.1698C18.4473 11.9194 18.8974 12.9363 18.8983 13.997C18.8991 15.0577 18.4507 16.0753 17.6515 16.826C16.8523 17.5766 15.7679 17.9989 14.6368 18H14.6325Z" stroke="white"/>
</g>
<defs>
<filter id="filter0_d_1098_204" x="0.366699" y="0" width="28.5315" height="28" filterUnits="userSpaceOnUse" color-interpolation-filters="sRGB">
<feFlood flood-opacity="0" result="BackgroundImageFix"/>
<feColorMatrix in="SourceAlpha" type="matrix" values="0 0 0 0 0 0 0 0 0 0 0 0 0 0 0 0 0 0 127 0" result="hardAlpha"/>
<feOffset/>
<feGaussianBlur stdDeviation="5"/>
<feComposite in2="hardAlpha" operator="out"/>
<feColorMatrix type="matrix" values="0 0 0 0 0 0 0 0 0 0.568627 0 0 0 0 0.815686 0 0 0 1 0"/>
<feBlend mode="normal" in2="BackgroundImageFix" result="effect1_dropShadow_1098_204"/>
<feBlend mode="normal" in="SourceGraphic" in2="effect1_dropShadow_1098_204" result="shape"/>
</filter>
</defs>
</svg>
