<svg width="29" height="28" viewBox="0 0 29 28" fill="none" xmlns="http://www.w3.org/2000/svg">
<g filter="url(#filter0_d_1098_221)">
<path d="M14.6877 18C13.5565 18 12.4716 17.5787 11.6717 16.8288C10.8717 16.0788 10.4222 15.0617 10.4219 14.001C10.4216 12.9403 10.8706 11.9229 11.6702 11.1726C12.4697 10.4223 13.5543 10.0005 14.6855 10C15.8167 9.99947 16.9018 10.4202 17.7022 11.1698C18.5025 11.9194 18.9526 12.9363 18.9535 13.997C18.9543 15.0577 18.5058 16.0753 17.7066 16.826C16.9075 17.5766 15.8231 17.9989 14.692 18H14.6877Z" fill="#0091D0"/>
<path d="M14.6877 18C13.5565 18 12.4716 17.5787 11.6717 16.8288C10.8717 16.0788 10.4222 15.0617 10.4219 14.001C10.4216 12.9403 10.8706 11.9229 11.6702 11.1726C12.4697 10.4223 13.5543 10.0005 14.6855 10C15.8167 9.99947 16.9018 10.4202 17.7022 11.1698C18.5025 11.9194 18.9526 12.9363 18.9535 13.997C18.9543 15.0577 18.5058 16.0753 17.7066 16.826C16.9075 17.5766 15.8231 17.9989 14.692 18H14.6877Z" stroke="white"/>
</g>
<defs>
<filter id="filter0_d_1098_221" x="0.421875" y="0" width="28.5315" height="28" filterUnits="userSpaceOnUse" color-interpolation-filters="sRGB">
<feFlood flood-opacity="0" result="BackgroundImageFix"/>
<feColorMatrix in="SourceAlpha" type="matrix" values="0 0 0 0 0 0 0 0 0 0 0 0 0 0 0 0 0 0 127 0" result="hardAlpha"/>
<feOffset/>
<feGaussianBlur stdDeviation="5"/>
<feComposite in2="hardAlpha" operator="out"/>
<feColorMatrix type="matrix" values="0 0 0 0 0 0 0 0 0 0.568627 0 0 0 0 0.815686 0 0 0 1 0"/>
<feBlend mode="normal" in2="BackgroundImageFix" result="effect1_dropShadow_1098_221"/>
<feBlend mode="normal" in="SourceGraphic" in2="effect1_dropShadow_1098_221" result="shape"/>
</filter>
</defs>
</svg>
