<svg width="30" height="28" viewBox="0 0 30 28" fill="none" xmlns="http://www.w3.org/2000/svg">
<g filter="url(#filter0_d_1098_193)">
<path d="M15.1261 18C13.995 18 12.9101 17.5787 12.1102 16.8288C11.3102 16.0788 10.8606 15.0617 10.8604 14.001C10.8601 12.9403 11.3091 11.9229 12.1086 11.1726C12.9082 10.4223 13.9928 10.0005 15.124 10C16.2552 9.99947 17.3403 10.4202 18.1406 11.1698C18.941 11.9194 19.3911 12.9363 19.3919 13.997C19.3928 15.0577 18.9443 16.0753 18.1452 16.826C17.346 17.5766 16.2616 17.9989 15.1304 18H15.1261Z" fill="#0091D0"/>
<path d="M15.1261 18C13.995 18 12.9101 17.5787 12.1102 16.8288C11.3102 16.0788 10.8606 15.0617 10.8604 14.001C10.8601 12.9403 11.3091 11.9229 12.1086 11.1726C12.9082 10.4223 13.9928 10.0005 15.124 10C16.2552 9.99947 17.3403 10.4202 18.1406 11.1698C18.941 11.9194 19.3911 12.9363 19.3919 13.997C19.3928 15.0577 18.9443 16.0753 18.1452 16.826C17.346 17.5766 16.2616 17.9989 15.1304 18H15.1261Z" stroke="white"/>
</g>
<defs>
<filter id="filter0_d_1098_193" x="0.860352" y="0" width="28.5315" height="28" filterUnits="userSpaceOnUse" color-interpolation-filters="sRGB">
<feFlood flood-opacity="0" result="BackgroundImageFix"/>
<feColorMatrix in="SourceAlpha" type="matrix" values="0 0 0 0 0 0 0 0 0 0 0 0 0 0 0 0 0 0 127 0" result="hardAlpha"/>
<feOffset/>
<feGaussianBlur stdDeviation="5"/>
<feComposite in2="hardAlpha" operator="out"/>
<feColorMatrix type="matrix" values="0 0 0 0 0 0 0 0 0 0.568627 0 0 0 0 0.815686 0 0 0 1 0"/>
<feBlend mode="normal" in2="BackgroundImageFix" result="effect1_dropShadow_1098_193"/>
<feBlend mode="normal" in="SourceGraphic" in2="effect1_dropShadow_1098_193" result="shape"/>
</filter>
</defs>
</svg>
