<svg width="163" height="69" viewBox="0 0 163 69" fill="none" xmlns="http://www.w3.org/2000/svg">
<g clip-path="url(#clip0_1098_10028)">
<path d="M32.1505 32.4411C32.2253 32.6259 32.1391 32.8395 31.9585 32.9091C29.0086 34.0401 25.6911 34.6776 22.1832 34.6776C9.93149 34.6776 0 26.915 0 17.338C0 11.4406 3.76824 6.22995 9.52473 3.09981C9.68419 3.01333 9.88268 3.07437 9.9738 3.23715L10.6685 4.49362C10.7662 4.66827 10.6995 4.89209 10.527 4.98366C5.36275 7.7238 1.99313 12.2359 1.99313 17.338C1.99313 22.9353 6.04773 27.8222 12.0776 30.4402C12.2045 30.4945 12.3444 30.3944 12.3395 30.2503C12.3233 29.6348 12.2663 28.7887 12.1703 27.7086C12.0743 26.4012 12.0255 25.4245 12.0255 24.7802C12.0255 24.0816 12.0532 23.4644 12.1052 22.9269C12.1231 22.7471 12.2679 22.6115 12.442 22.6115H12.4941C12.6666 22.6115 12.8146 22.7471 12.8293 22.9269C13.0278 25.2855 14.0154 27.2406 15.7905 28.7938C17.6063 30.3944 19.6922 31.1948 22.0481 31.1948C23.8623 31.1948 25.3396 30.6776 26.4802 29.6433C27.6191 28.6072 28.1886 27.3677 28.1886 25.9214C28.1886 24.3987 27.6387 23.2168 26.5371 22.3775C25.4747 21.5568 23.3807 20.6293 20.2519 19.5949C17.7413 18.7539 15.9548 18.0604 14.894 17.5144C13.6574 16.8701 12.6926 16.0002 11.9962 14.9065C11.2429 13.7942 10.867 12.5445 10.867 11.1575C10.867 9.92643 11.1925 8.71236 11.8449 7.51863C11.9019 7.4135 12.058 7.45589 12.0564 7.57628V8.60892C12.0548 10.1316 12.4111 11.4695 13.127 12.6225C13.8592 13.8128 14.7671 14.7115 15.8491 15.3169C16.9311 15.9425 18.7354 16.6547 21.2655 17.455C24.5684 18.4707 26.952 19.5949 28.4196 20.8243C29.8303 22.0163 30.5348 23.617 30.5348 25.6297C30.5348 27.6424 29.801 29.3889 28.3334 30.9896C28.0422 31.3084 27.7233 31.5933 27.3767 31.8493C27.3279 31.8849 27.3621 31.968 27.4206 31.9561C28.7271 31.695 29.9816 31.3355 31.1693 30.8913C31.3386 30.8285 31.524 30.9116 31.594 31.0829L32.1505 32.4411Z" fill="#0091D0"/>
<path d="M44.3663 17.3379C44.3663 23.9797 39.5893 29.7465 32.5767 32.663C32.4173 32.7291 32.2351 32.6494 32.1684 32.485L31.5989 31.0928C31.5289 30.9216 31.6103 30.7232 31.7779 30.6554C38.0875 28.0984 42.3732 23.0928 42.3732 17.3379C42.3732 11.9559 38.6228 7.22849 32.9754 4.54939C32.7606 4.44765 32.5182 4.61212 32.5247 4.85799C32.5344 5.16829 32.5475 5.50064 32.5637 5.85502C32.6223 6.85036 32.6516 7.7287 32.6516 8.49174C32.6516 8.92582 32.6369 9.44468 32.6093 10.05C32.6011 10.2264 32.4612 10.3654 32.292 10.3654C32.1244 10.3654 31.9845 10.2298 31.9764 10.0551C31.8804 7.94574 30.9952 6.3705 29.3194 5.32768C27.6012 4.25265 25.5154 3.71513 23.0634 3.71513C21.1126 3.71513 19.5099 4.13565 18.2555 4.97499C16.9799 5.81603 16.3437 6.82154 16.3437 7.99322C16.3437 9.2429 16.8448 10.2298 17.8487 10.9521C18.8916 11.7338 20.9482 12.6613 24.0185 13.7346C26.8772 14.7317 28.8752 15.5422 30.0158 16.1662C31.2312 16.8495 32.2448 17.8262 33.0567 19.0962C33.867 20.4053 34.2737 21.8601 34.2737 23.4608C34.2737 25.4956 33.6571 27.1641 32.4222 28.4663C32.2774 28.6189 32.0431 28.446 32.1212 28.2493C32.4352 27.4557 32.593 26.4858 32.593 25.3379C32.593 23.7762 32.2351 22.3892 31.5208 21.1785C30.7691 19.9474 29.8417 18.9708 28.7402 18.2484C27.6208 17.5057 25.7952 16.7156 23.2668 15.8745C19.4611 14.6062 16.9799 13.5227 15.8214 12.624C14.6629 11.705 14.0837 10.2789 14.0837 8.34591C14.0837 6.11954 14.9721 4.37135 16.7488 3.10301C16.9327 2.97584 17.123 2.85545 17.3215 2.74184C17.3411 2.73167 17.3492 2.70793 17.3411 2.68588C17.3329 2.66384 17.3134 2.65197 17.2923 2.65536C15.0616 3.07079 12.979 3.76431 11.1127 4.68334C10.963 4.75625 10.7857 4.7003 10.7027 4.55108L9.98356 3.25053C9.89245 3.08436 9.95265 2.8724 10.117 2.78762C13.5891 1.02416 17.7332 0 22.1832 0C25.9481 0 29.4919 0.732514 32.5979 2.02628C39.6007 4.94108 44.3663 10.7045 44.3663 17.3379Z" fill="#ED1C24"/>
<path d="M63.8047 7.08515C65.9442 7.08515 68.0854 7.08515 70.225 7.08515C70.4153 7.08515 70.6041 7.09193 70.7944 7.08854C71.0971 7.08176 71.237 7.22928 71.2354 7.54636C71.2321 8.53491 71.2305 9.52347 71.2386 10.5103C71.2419 10.8732 71.0759 11.0207 70.744 11.0122C70.5276 11.0071 70.3112 11.0122 70.0932 11.0122C66.0288 11.0122 61.9661 11.0224 57.9017 11.0038C57.0882 11.0004 56.4032 11.2174 55.9118 11.9126C55.2871 12.7943 55.2708 13.7626 55.6857 14.7206C56.0811 15.6328 56.8458 16.0398 57.783 16.0567C59.0016 16.0788 60.2219 16.0635 61.4406 16.0635C62.9033 16.0635 64.3676 16.0957 65.8287 16.0567C68.432 15.9889 70.2591 17.2657 71.3184 19.6464C72.5191 22.3442 72.4199 25.0385 70.6854 27.4938C69.527 29.1352 67.8934 29.9847 65.9328 29.9983C61.6521 30.0271 57.3713 30.0067 53.0905 30.0067C52.9555 30.0067 52.8205 30.0016 52.6838 30.0033C52.3942 30.005 52.2071 29.8643 52.2038 29.5557C52.1924 28.5112 52.194 27.4667 52.1973 26.4222C52.1973 26.1169 52.3698 25.9609 52.661 25.9542C52.8774 25.9491 53.0938 25.9474 53.3118 25.9474C57.4022 25.9474 61.4942 25.9389 65.5846 25.9525C66.8423 25.9559 67.7356 25.3692 68.1977 24.1856C69.0974 21.8863 67.4785 19.8092 65.57 19.8516C63.0237 19.9058 60.4741 19.7922 57.931 19.8838C54.9438 19.9923 53.0531 18.1119 52.2917 15.4989C51.6376 13.2556 51.963 11.1309 53.3574 9.25725C54.4085 7.84479 55.7719 7.04615 57.547 7.07497C59.6329 7.10889 61.7188 7.08345 63.8047 7.08345V7.08515Z" fill="#ED1C24"/>
<path d="M103.854 18.5564C103.854 21.9443 103.854 25.3322 103.854 28.7184C103.854 28.8879 103.858 29.0575 103.854 29.2271C103.835 29.946 103.793 29.9969 103.111 30.0071C102.462 30.0172 101.811 30.0189 101.16 30.0054C100.623 29.9935 100.602 29.9647 100.576 29.4373C100.565 29.2118 100.573 28.9863 100.573 28.7608C100.573 23.0024 100.573 17.244 100.573 11.484C100.573 10.47 100.654 10.5531 99.7168 10.5514C98.6332 10.548 97.5496 10.5598 96.466 10.5497C92.8344 10.5107 90.1514 13.2152 89.4502 16.5352C89.0125 18.6022 89.1703 20.6438 90.1368 22.5412C91.139 24.5081 92.6587 25.8612 94.7755 26.3292C96.0902 26.6192 97.4162 26.5581 98.6674 25.9308C98.7894 25.8697 98.9082 25.8019 99.0319 25.7442C99.5525 25.4984 99.6355 25.5425 99.6453 26.1461C99.6599 26.9922 99.655 27.84 99.6469 28.6862C99.6404 29.361 99.6355 29.3678 99.0286 29.5832C95.646 30.7921 92.5529 30.1817 89.8195 27.8299C87.1414 25.5255 85.8284 22.5141 85.7682 18.8786C85.7177 15.8841 86.4629 13.1728 88.2754 10.8464C90.1286 8.46742 92.5448 7.14313 95.5191 7.09565C98.0377 7.05496 100.556 7.08378 103.077 7.08887C103.841 7.08887 103.851 7.09904 103.853 7.88751C103.858 11.445 103.854 15.0007 103.854 18.5581V18.5564Z" fill="#ED1C24"/>
<path d="M162.903 18.546C162.903 22.0458 162.903 25.5473 162.903 29.0471C162.903 30.0051 162.9 30.0051 161.961 30.0085C161.338 30.0085 160.715 30.0017 160.092 30.0085C159.76 30.0136 159.581 29.8813 159.595 29.5134C159.605 29.2878 159.595 29.0623 159.595 28.8351C159.595 23.1615 159.595 17.4862 159.595 11.8126C159.595 11.6431 159.595 11.4735 159.595 11.3039C159.587 10.5579 159.587 10.5511 158.899 10.5494C157.734 10.5443 156.569 10.546 155.404 10.5494C151.558 10.5579 148.942 13.6999 148.431 16.9962C148.104 19.1022 148.353 21.1166 149.433 22.9462C151.089 25.7508 153.834 27.0377 156.945 26.2357C157.412 26.1153 157.848 25.8627 158.294 25.6626C158.526 25.5574 158.676 25.6202 158.679 25.8847C158.689 26.9563 158.686 28.0297 158.684 29.103C158.684 29.337 158.535 29.4455 158.341 29.5168C156.947 30.0288 155.521 30.3408 154.039 30.1187C149.506 29.4388 146.615 26.6444 145.329 22.2086C144.075 17.8796 144.843 13.7881 147.755 10.3408C149.504 8.27046 151.802 7.14286 154.491 7.09538C157.01 7.05129 159.53 7.08351 162.049 7.08521C162.898 7.08521 162.903 7.09029 162.903 7.95846C162.905 11.4871 162.903 15.0157 162.903 18.5443V18.546Z" fill="#ED1C24"/>
<path d="M73.2627 12.6949C73.2627 9.16627 73.2627 5.63766 73.2627 2.10734C73.2627 1.90896 73.2708 1.71226 73.2627 1.51387C73.2497 1.14422 73.4368 1.02044 73.7654 1.02383C74.496 1.03231 75.2281 1.01536 75.9603 1.02892C76.5216 1.03909 76.5558 1.07131 76.5607 1.66478C76.5721 2.90768 76.564 4.14889 76.564 5.39179C76.564 5.75805 76.5558 6.126 76.5656 6.49226C76.5802 7.06029 76.5851 7.06708 77.1058 7.08234C77.4849 7.09421 77.864 7.08573 78.2431 7.08573C79.7334 7.08573 81.2222 7.08064 82.7126 7.08912C83.3243 7.09251 83.3569 7.12812 83.3666 7.75889C83.378 8.4931 83.3797 9.22731 83.3666 9.96152C83.3553 10.6262 83.2967 10.6906 82.6638 10.694C80.9846 10.7025 79.3039 10.6974 77.6248 10.6974C77.4344 10.6974 77.2457 10.7076 77.0553 10.6974C76.7234 10.6771 76.5379 10.8009 76.5623 11.1773C76.5737 11.3452 76.5623 11.5164 76.5623 11.686C76.5623 14.8755 76.5737 18.0667 76.5558 21.2561C76.5509 22.1497 76.7413 22.9925 77.0244 23.8166C77.4963 25.1917 78.5132 25.909 79.8246 26.2549C80.7861 26.5075 81.7624 26.4227 82.7353 26.4363C84.0207 26.4533 84.0321 26.2464 84.0207 27.7589C84.0158 28.3236 84.0207 28.8882 84.0158 29.4528C84.0142 29.775 83.9019 30.0073 83.5489 30.0056C81.873 29.9954 80.1923 30.1972 78.5245 29.8835C75.7504 29.3613 74.2226 27.4859 73.4547 24.7898C73.2757 24.1591 73.261 23.5113 73.261 22.8602C73.261 19.4723 73.261 16.0845 73.261 12.6966L73.2627 12.6949Z" fill="#ED1C24"/>
<path d="M132.285 12.4675V2.3107C132.285 2.16996 132.285 2.02922 132.285 1.88679C132.294 1.03558 132.294 1.03219 133.084 1.02541C133.707 1.02032 134.329 1.01523 134.952 1.02541C135.582 1.03727 135.601 1.04914 135.606 1.69009C135.616 3.12799 135.609 4.56759 135.609 6.00718C135.609 7.12969 135.527 7.08391 136.604 7.08391C138.309 7.08391 140.014 7.07882 141.719 7.0856C142.401 7.08899 142.409 7.09917 142.417 7.77912C142.427 8.54046 142.428 9.3018 142.417 10.0648C142.407 10.6515 142.38 10.6871 141.81 10.6905C140.051 10.7007 138.291 10.6939 136.532 10.6956C135.527 10.6956 135.609 10.6227 135.609 11.6519C135.608 14.8109 135.614 17.9716 135.605 21.1305C135.601 22.0462 135.797 22.9144 136.075 23.774C136.449 24.9305 137.23 25.6545 138.304 26.0631C138.943 26.3056 139.604 26.4413 140.289 26.4362C141.019 26.4311 141.752 26.426 142.482 26.4413C143.017 26.4531 143.055 26.4887 143.065 27.011C143.079 27.8283 143.065 28.6473 143.071 29.4646C143.074 29.7952 142.985 30.0106 142.62 30.0055C140.946 29.9834 139.274 30.1598 137.599 29.8834C134.617 29.39 132.966 26.8686 132.464 24.554C132.297 23.7774 132.282 22.989 132.284 22.2005C132.284 18.9567 132.284 15.7113 132.284 12.4675H132.285Z" fill="#ED1C24"/>
<path d="M115.149 24.3099C115.405 24.0199 115.439 23.6706 115.538 23.3552C117.16 18.2446 118.774 13.1305 120.393 8.0165C120.712 7.0076 120.541 7.10764 121.62 7.10086C122.372 7.09577 123.124 7.10086 123.895 7.10086C123.955 7.56546 123.768 7.89272 123.659 8.22506C121.915 13.5307 120.157 18.833 118.405 24.1352C117.832 25.8681 117.268 27.6028 116.693 29.334C116.472 30.0004 116.466 30.0004 115.777 30.0072C115.345 30.0106 114.91 29.9902 114.477 30.0123C114.061 30.0343 113.854 29.8614 113.721 29.4375C113.241 27.9114 112.719 26.3989 112.216 24.8796C110.369 19.2823 108.524 13.685 106.677 8.08772C106.46 7.42981 106.696 7.10029 107.383 7.09916C107.925 7.09916 108.467 7.09577 109.007 7.09916C109.736 7.10425 109.741 7.10425 109.966 7.81811C110.708 10.175 111.448 12.532 112.187 14.8889C113.111 17.8359 114.032 20.7829 114.956 23.7299C115.014 23.9148 115.078 24.0962 115.149 24.3048V24.3099Z" fill="#ED1C24"/>
<path d="M129.596 18.3597C129.596 21.8578 129.596 25.3559 129.596 28.854C129.596 29.0795 129.591 29.305 129.594 29.5305C129.599 29.8391 129.474 30.0053 129.163 30.0036C128.324 30.0002 127.486 30.0019 126.646 30.0036C126.301 30.0036 126.163 29.8052 126.158 29.4729C126.155 29.2762 126.153 29.0778 126.153 28.8811C126.153 21.8578 126.153 14.8328 126.153 7.80944C126.153 6.62928 126.158 6.76832 127.178 6.76323C127.801 6.75984 128.423 6.75136 129.046 6.76662C129.567 6.77849 129.573 6.79715 129.598 7.3584C129.606 7.5551 129.599 7.75348 129.599 7.95018C129.599 11.4194 129.599 14.8904 129.599 18.3597H129.596Z" fill="#ED1C24"/>
<path d="M129.596 3.10456C129.593 3.35721 129.601 3.60986 129.513 3.85573C129.262 4.56959 128.573 5.09694 127.907 5.0732C127.229 5.04946 126.584 4.45599 126.363 3.65395C126.114 2.74848 126.591 1.66836 127.393 1.31567C128.148 0.985022 129.02 1.36823 129.441 2.1991C129.588 2.48905 129.594 2.79257 129.596 3.10287V3.10456Z" fill="#ED1C24"/>
</g>
<path d="M26.1528 54.436C26.1528 55.192 25.9668 55.852 25.5948 56.416C25.2228 56.98 24.6828 57.418 23.9748 57.73C23.2788 58.03 22.4268 58.18 21.4188 58.18C20.9748 58.18 20.5368 58.15 20.1048 58.09C19.6848 58.03 19.2768 57.946 18.8808 57.838C18.4968 57.718 18.1308 57.574 17.7828 57.406V54.868C18.3948 55.132 19.0248 55.378 19.6728 55.606C20.3328 55.822 20.9868 55.93 21.6348 55.93C22.0788 55.93 22.4328 55.87 22.6968 55.75C22.9728 55.63 23.1708 55.468 23.2908 55.264C23.4228 55.06 23.4888 54.826 23.4888 54.562C23.4888 54.238 23.3748 53.962 23.1468 53.734C22.9308 53.506 22.6368 53.296 22.2648 53.104C21.8928 52.9 21.4668 52.684 20.9868 52.456C20.6868 52.312 20.3628 52.144 20.0148 51.952C19.6668 51.748 19.3308 51.502 19.0068 51.214C18.6948 50.914 18.4368 50.554 18.2328 50.134C18.0288 49.714 17.9268 49.21 17.9268 48.622C17.9268 47.854 18.1008 47.2 18.4488 46.66C18.8088 46.108 19.3128 45.688 19.9608 45.4C20.6208 45.112 21.3948 44.968 22.2828 44.968C22.9548 44.968 23.5908 45.046 24.1908 45.202C24.8028 45.358 25.4388 45.58 26.0988 45.868L25.2168 47.992C24.6288 47.752 24.1008 47.566 23.6328 47.434C23.1648 47.302 22.6848 47.236 22.1928 47.236C21.8568 47.236 21.5688 47.29 21.3288 47.398C21.0888 47.506 20.9028 47.656 20.7708 47.848C20.6508 48.04 20.5908 48.268 20.5908 48.532C20.5908 48.832 20.6808 49.09 20.8608 49.306C21.0408 49.51 21.3108 49.708 21.6708 49.9C22.0308 50.092 22.4808 50.32 23.0208 50.584C23.6808 50.896 24.2388 51.22 24.6948 51.556C25.1628 51.892 25.5228 52.288 25.7748 52.744C26.0268 53.2 26.1528 53.764 26.1528 54.436ZM35.5268 58H28.1288V45.148H35.5268V47.38H30.8468V50.206H35.2028V52.438H30.8468V55.75H35.5268V58ZM37.8411 58V45.148H40.5591V55.75H45.7791V58H37.8411ZM47.6588 58V45.148H50.3768V55.75H55.5968V58H47.6588ZM64.8746 58H57.4766V45.148H64.8746V47.38H60.1946V50.206H64.5506V52.438H60.1946V55.75H64.8746V58ZM70.9328 45.148C72.0968 45.148 73.0568 45.292 73.8128 45.58C74.5688 45.856 75.1328 46.282 75.5048 46.858C75.8768 47.422 76.0628 48.136 76.0628 49C76.0628 49.588 75.9488 50.104 75.7208 50.548C75.5048 50.98 75.2108 51.352 74.8388 51.664C74.4788 51.964 74.0888 52.21 73.6688 52.402L77.4488 58H74.4248L71.3648 53.068H69.9068V58H67.1888V45.148H70.9328ZM70.7348 47.38H69.9068V50.854H70.7888C71.3888 50.854 71.8748 50.788 72.2468 50.656C72.6188 50.524 72.8888 50.326 73.0568 50.062C73.2248 49.786 73.3088 49.456 73.3088 49.072C73.3088 48.664 73.2128 48.34 73.0208 48.1C72.8408 47.848 72.5588 47.668 72.1748 47.56C71.8028 47.44 71.3228 47.38 70.7348 47.38ZM86.3193 47.236C85.8033 47.236 85.3413 47.338 84.9333 47.542C84.5373 47.746 84.2013 48.04 83.9253 48.424C83.6493 48.796 83.4393 49.252 83.2953 49.792C83.1633 50.332 83.0973 50.938 83.0973 51.61C83.0973 52.522 83.2053 53.302 83.4213 53.95C83.6493 54.586 84.0033 55.072 84.4833 55.408C84.9633 55.744 85.5753 55.912 86.3193 55.912C86.8473 55.912 87.3693 55.852 87.8853 55.732C88.4133 55.612 88.9833 55.444 89.5953 55.228V57.514C89.0313 57.742 88.4733 57.91 87.9213 58.018C87.3693 58.126 86.7513 58.18 86.0673 58.18C84.7473 58.18 83.6553 57.91 82.7913 57.37C81.9393 56.818 81.3093 56.05 80.9013 55.066C80.4933 54.07 80.2893 52.912 80.2893 51.592C80.2893 50.62 80.4213 49.732 80.6853 48.928C80.9493 48.112 81.3333 47.41 81.8373 46.822C82.3533 46.234 82.9833 45.778 83.7273 45.454C84.4833 45.13 85.3473 44.968 86.3193 44.968C86.9553 44.968 87.5913 45.052 88.2273 45.22C88.8753 45.376 89.4933 45.592 90.0813 45.868L89.1993 48.082C88.7193 47.854 88.2333 47.656 87.7413 47.488C87.2613 47.32 86.7873 47.236 86.3193 47.236ZM99.3643 58H91.9663V45.148H99.3643V47.38H94.6843V50.206H99.0403V52.438H94.6843V55.75H99.3643V58ZM113.073 58H109.617L104.019 48.28H103.947C103.959 48.58 103.971 48.886 103.983 49.198C103.995 49.498 104.007 49.804 104.019 50.116C104.043 50.416 104.061 50.722 104.073 51.034C104.085 51.334 104.097 51.64 104.109 51.952V58H101.679V45.148H105.117L110.697 54.778H110.751C110.739 54.478 110.727 54.184 110.715 53.896C110.703 53.596 110.691 53.302 110.679 53.014C110.679 52.714 110.673 52.42 110.661 52.132C110.649 51.832 110.637 51.532 110.625 51.232V45.148H113.073V58ZM120.911 58H118.193V47.416H114.701V45.148H124.403V47.416H120.911V58ZM133.423 58H126.025V45.148H133.423V47.38H128.743V50.206H133.099V52.438H128.743V55.75H133.423V58ZM139.481 45.148C140.645 45.148 141.605 45.292 142.361 45.58C143.117 45.856 143.681 46.282 144.053 46.858C144.425 47.422 144.611 48.136 144.611 49C144.611 49.588 144.497 50.104 144.269 50.548C144.053 50.98 143.759 51.352 143.387 51.664C143.027 51.964 142.637 52.21 142.217 52.402L145.997 58H142.973L139.913 53.068H138.455V58H135.737V45.148H139.481ZM139.283 47.38H138.455V50.854H139.337C139.937 50.854 140.423 50.788 140.795 50.656C141.167 50.524 141.437 50.326 141.605 50.062C141.773 49.786 141.857 49.456 141.857 49.072C141.857 48.664 141.761 48.34 141.569 48.1C141.389 47.848 141.107 47.668 140.723 47.56C140.351 47.44 139.871 47.38 139.283 47.38Z" fill="white"/>
<defs>
<clipPath id="clip0_1098_10028">
<rect width="162.903" height="34.6774" fill="white"/>
</clipPath>
</defs>
</svg>
