<svg width="20" height="20" viewBox="0 0 20 20" fill="none" xmlns="http://www.w3.org/2000/svg">
  <path d="M18 13C18 13.5304 17.7893 14.0391 17.4142 14.4142C17.0391 14.7893 16.5304 15 16 15H4C3.46957 15 2.96086 14.7893 2.58579 14.4142C2.21071 14.0391 2 13.5304 2 13C2 12.4696 2.21071 11.9609 2.58579 11.5858C2.96086 11.2107 3.46957 11 4 11H5.29C5.383 10.74 5.50454 10.4878 5.65246 10.25L6.29289 9.29289C6.68342 8.712 6.68342 7.954 6.29289 7.37311L5.65246 6.41511C5.50454 6.17725 5.383 5.925 5.29 5.665H4C3.46957 5.665 2.96086 5.45429 2.58579 5.07921C2.21071 4.70414 2 4.19543 2 3.665C2 3.13457 2.21071 2.62586 2.58579 2.25079C2.96086 1.87571 3.46957 1.665 4 1.665H16C16.5304 1.665 17.0391 1.87571 17.4142 2.25079C17.7893 2.62586 18 3.13457 18 3.665C18 4.19543 17.7893 4.70414 17.4142 5.07921C17.0391 5.45429 16.5304 5.665 16 5.665H14.71C14.617 5.925 14.4955 6.17725 14.3475 6.41511L13.7071 7.37311C13.3166 7.954 13.3166 8.712 13.7071 9.29289L14.3475 10.25C14.4955 10.4878 14.617 10.74 14.71 11H16C16.5304 11 17.0391 11.2107 17.4142 11.5858C17.7893 11.9609 18 12.4696 18 13Z" stroke="currentColor" stroke-width="2" stroke-linecap="round" stroke-linejoin="round"/>
  <path d="M7 19H13" stroke="currentColor" stroke-width="2" stroke-linecap="round" stroke-linejoin="round"/>
</svg>
