<svg width="21" height="21" viewBox="0 0 21 21" fill="none" xmlns="http://www.w3.org/2000/svg">
<path d="M6 19H4C3.20435 19 2.44129 18.6839 1.87868 18.1213C1.31607 17.5587 1 16.7957 1 16V15H6.5M15 6.5V3C15 2.60444 15.1173 2.21776 15.3371 1.88886C15.5568 1.55996 15.8692 1.30362 16.2346 1.15224C16.6001 1.00087 17.0022 0.96126 17.3902 1.03843C17.7781 1.1156 18.1345 1.30608 18.4142 1.58579C18.6939 1.86549 18.8844 2.22186 18.9616 2.60982C19.0387 2.99778 18.9991 3.39992 18.8478 3.76537C18.6964 4.13082 18.44 4.44318 18.1111 4.66294C17.7822 4.8827 17.3956 5 17 5H15" stroke="#606060" stroke-width="2" stroke-linecap="round" stroke-linejoin="round"/>
<path d="M17 1H6C5.20435 1 4.44129 1.31607 3.87868 1.87868C3.31607 2.44129 3 3.20435 3 4V15M7 5H11M7 9H11M16.42 10.61C16.8138 10.2162 17.348 9.99489 17.905 9.99489C18.462 9.99489 18.9962 10.2162 19.39 10.61C19.7838 11.0038 20.0051 11.538 20.0051 12.095C20.0051 12.652 19.7838 13.1862 19.39 13.58L13 20H10V17L16.42 10.61Z" stroke="#606060" stroke-width="2" stroke-linecap="round" stroke-linejoin="round"/>
</svg>
