<svg width="19" height="16" viewBox="0 0 19 16" fill="none" xmlns="http://www.w3.org/2000/svg">
<path d="M16.15 0H2.85C2.09413 0 1.36922 0.300267 0.834746 0.834746C0.300267 1.36922 0 2.09413 0 2.85V12.35C0 13.1059 0.300267 13.8308 0.834746 14.3653C1.36922 14.8997 2.09413 15.2 2.85 15.2H16.15C16.9059 15.2 17.6308 14.8997 18.1653 14.3653C18.6997 13.8308 19 13.1059 19 12.35V2.85C19 2.09413 18.6997 1.36922 18.1653 0.834746C17.6308 0.300267 16.9059 0 16.15 0ZM15.5135 1.9L9.5 6.4125L3.4865 1.9H15.5135ZM16.15 13.3H2.85C2.59804 13.3 2.35641 13.1999 2.17825 13.0218C2.00009 12.8436 1.9 12.602 1.9 12.35V3.0875L8.93 8.36C9.09444 8.48333 9.29445 8.55 9.5 8.55C9.70555 8.55 9.90556 8.48333 10.07 8.36L17.1 3.0875V12.35C17.1 12.602 16.9999 12.8436 16.8218 13.0218C16.6436 13.1999 16.402 13.3 16.15 13.3Z" fill="#606060"/>
</svg>
