<svg width="19" height="14" viewBox="0 0 19 14" fill="none" xmlns="http://www.w3.org/2000/svg">
<path fill-rule="evenodd" clip-rule="evenodd" d="M6.0344 1.4212C7.18693 1.32125 8.34315 1.26969 9.5 1.26667C10.6907 1.26667 11.8661 1.32873 12.9656 1.4212C14.288 1.53267 15.1443 1.60867 15.7979 1.7632C16.3932 1.9038 16.7263 2.09 17.0126 2.3826C17.043 2.41427 17.0886 2.4624 17.1165 2.4966C17.3698 2.78793 17.5345 3.15273 17.6295 3.8418C17.7308 4.58027 17.7333 5.54293 17.7333 6.99833C17.7333 8.436 17.7308 9.386 17.6295 10.1143C17.5357 10.7933 17.3711 11.1543 17.1165 11.4494C17.0825 11.4883 17.0474 11.5263 17.0113 11.5634C16.72 11.8598 16.3907 12.0435 15.8105 12.1803C15.1683 12.3323 14.3311 12.4057 13.0315 12.5147C11.9307 12.6059 10.7363 12.6667 9.5 12.6667C8.26373 12.6667 7.068 12.6059 5.96853 12.5147C4.66893 12.4057 3.83167 12.3323 3.18947 12.1803C2.60807 12.0435 2.27873 11.8598 1.98867 11.5634C1.95262 11.5263 1.91756 11.4883 1.88353 11.4494C1.6302 11.1543 1.46553 10.7933 1.37053 10.1143C1.2692 9.386 1.26667 8.436 1.26667 6.99833C1.26667 5.54293 1.2692 4.579 1.37053 3.8418C1.46553 3.15273 1.6302 2.78793 1.88353 2.4966C1.91267 2.4624 1.957 2.41427 1.9874 2.3826C2.27367 2.09 2.6068 1.9038 3.20213 1.7632C3.857 1.60867 4.712 1.53267 6.0344 1.4212ZM0 6.99833C0 4.15847 0 2.73853 0.924667 1.6682C0.970267 1.615 1.03233 1.54787 1.08173 1.4972C2.06973 0.485133 3.35667 0.3762 5.928 0.1596C7.05533 0.0633332 8.26753 0 9.5 0C10.7325 0 11.9447 0.0633332 13.072 0.1596C15.6433 0.3762 16.9303 0.485133 17.9183 1.4972C17.9677 1.54787 18.0285 1.615 18.0753 1.6682C19 2.73853 19 4.15847 19 6.99833C19 9.804 19 11.2075 18.0741 12.2778C18.0229 12.3363 17.9701 12.3933 17.9157 12.4488C16.9265 13.4609 15.6636 13.566 13.1366 13.7763C12.008 13.8713 10.7768 13.9333 9.5 13.9333C8.2232 13.9333 6.992 13.87 5.86467 13.7763C3.3364 13.566 2.07353 13.4596 1.08427 12.4488C1.02992 12.3933 0.977119 12.3363 0.925933 12.2778C0 11.2075 0 9.804 0 6.99833ZM6.65 4.28513C6.64982 4.23246 6.66278 4.18057 6.6877 4.13417C6.71263 4.08777 6.74874 4.04832 6.79276 4.01939C6.83678 3.99046 6.88732 3.97297 6.9398 3.9685C6.99229 3.96404 7.04506 3.97273 7.09333 3.9938L13.2088 6.6766C13.4621 6.78807 13.4621 7.14527 13.2088 7.25673L7.09333 9.93827C7.04516 9.95929 6.9925 9.968 6.94012 9.96359C6.88774 9.95918 6.83728 9.9418 6.79329 9.91302C6.7493 9.88424 6.71317 9.84497 6.68815 9.79873C6.66314 9.7525 6.65003 9.70077 6.65 9.6482V4.28513Z" fill="#606060"/>
</svg>
