<svg width="17" height="19" viewBox="0 0 17 19" fill="none" xmlns="http://www.w3.org/2000/svg">
<path d="M5.51364 11.2812C6.56484 11.2812 7.0703 11.875 8.79545 11.875C10.5206 11.875 11.0224 11.2812 12.0773 11.2812C14.795 11.2812 17 13.5152 17 16.2687V17.2188C17 18.2021 16.2125 19 15.2419 19H2.34903C1.3784 19 0.59091 18.2021 0.59091 17.2188V16.2687C0.59091 13.5152 2.79588 11.2812 5.51364 11.2812ZM2.34903 17.2188H15.2419V16.2687C15.2419 14.5023 13.8207 13.0625 12.0773 13.0625C11.5425 13.0625 10.6744 13.6562 8.79545 13.6562C6.90182 13.6562 6.05206 13.0625 5.51364 13.0625C3.77017 13.0625 2.34903 14.5023 2.34903 16.2687V17.2188ZM8.79545 10.6875C5.88357 10.6875 3.5211 8.29395 3.5211 5.34375C3.5211 2.39355 5.88357 0 8.79545 0C11.7073 0 14.0698 2.39355 14.0698 5.34375C14.0698 8.29395 11.7073 10.6875 8.79545 10.6875ZM8.79545 1.78125C6.85786 1.78125 5.27922 3.38066 5.27922 5.34375C5.27922 7.30684 6.85786 8.90625 8.79545 8.90625C10.733 8.90625 12.3117 7.30684 12.3117 5.34375C12.3117 3.38066 10.733 1.78125 8.79545 1.78125Z" fill="white"/>
</svg>
