<svg width="19" height="19" viewBox="0 0 19 19" fill="none" xmlns="http://www.w3.org/2000/svg">
<path fill-rule="evenodd" clip-rule="evenodd" d="M8.56767 0H10.4323C11.6404 0 12.6151 -1.31685e-08 13.3813 0.103395C14.1767 0.209442 14.8465 0.439209 15.3785 0.970326C15.6419 1.23456 15.831 1.53237 15.968 1.86288C16.7916 1.9654 17.4835 2.19163 18.0297 2.73777C18.5617 3.26977 18.7897 3.93963 18.8975 4.73498C19 5.50116 19 6.47591 19 7.68395V11.316C19 12.5241 19 13.4988 18.8975 14.265C18.7897 15.0604 18.5617 15.7302 18.0297 16.2622C17.4835 16.8084 16.7925 17.0346 15.968 17.138C15.831 17.4676 15.6419 17.7654 15.3785 18.0297C14.8465 18.5617 14.1767 18.7897 13.3813 18.8975C12.6151 19 11.6404 19 10.4323 19H8.56767C7.35963 19 6.38488 19 5.6187 18.8975C4.82335 18.7897 4.15349 18.5617 3.62149 18.0297C3.36756 17.7747 3.16716 17.4715 3.03205 17.138C2.20842 17.0346 1.51647 16.8084 0.970326 16.2622C0.438326 15.7302 0.210326 15.0604 0.103395 14.265C-1.31685e-08 13.4988 0 12.5241 0 11.316V7.68395C0 6.47591 -1.31685e-08 5.50116 0.103395 4.73498C0.209442 3.93963 0.439209 3.26977 0.970326 2.73777C1.51647 2.19163 2.20754 1.9654 3.03205 1.86288C3.16735 1.5292 3.36772 1.22578 3.62149 0.970326C4.15349 0.438326 4.82335 0.210326 5.6187 0.103395C6.38488 -1.31685e-08 7.35963 0 8.56767 0ZM2.72009 3.26093C2.33391 3.3546 2.09265 3.4907 1.90795 3.67628C1.66316 3.92019 1.50409 4.26307 1.4166 4.91172C1.32735 5.57981 1.32558 6.46442 1.32558 7.73256V11.2674C1.32558 12.5356 1.32735 13.4211 1.4166 14.0883C1.50409 14.7369 1.66405 15.0798 1.90795 15.3246C2.09265 15.5093 2.33391 15.6454 2.72098 15.7391C2.65116 15.0215 2.65116 14.1431 2.65116 13.0835V5.91651C2.65116 4.85781 2.65116 3.97851 2.72009 3.26093ZM16.2799 15.7391C16.6661 15.6454 16.9073 15.5093 17.092 15.3246C17.3368 15.0798 17.4959 14.7369 17.5834 14.0874C17.6727 13.4211 17.6744 12.5365 17.6744 11.2683V7.73344C17.6744 6.46442 17.6727 5.57981 17.5834 4.91172C17.4959 4.26307 17.336 3.92019 17.092 3.6754C16.9073 3.4907 16.6661 3.3546 16.279 3.26093C16.3488 3.97851 16.3488 4.85781 16.3488 5.91651V13.0835C16.3488 14.1422 16.3488 15.0215 16.2799 15.7391ZM5.79544 1.4166C5.14679 1.50409 4.80391 1.66405 4.55912 1.90795C4.31433 2.15274 4.15526 2.49563 4.06777 3.14516C3.97851 3.8106 3.97674 4.69609 3.97674 5.96512V13.0349C3.97674 14.303 3.97851 15.1876 4.06777 15.8557C4.15526 16.5044 4.31521 16.8473 4.55912 17.092C4.80391 17.3368 5.14679 17.4959 5.79633 17.5834C6.46265 17.6727 7.34814 17.6744 8.61628 17.6744H10.3837C11.6519 17.6744 12.5373 17.6727 13.2046 17.5834C13.8532 17.4959 14.1961 17.336 14.4409 17.092C14.6857 16.8473 14.8447 16.5044 14.9322 15.8548C15.0215 15.1876 15.0233 14.303 15.0233 13.0349V5.96512C15.0233 4.69698 15.0215 3.81149 14.9322 3.14428C14.8447 2.49563 14.6848 2.15274 14.4409 1.90795C14.1961 1.66316 13.8532 1.50409 13.2037 1.4166C12.5373 1.32735 11.6519 1.32558 10.3837 1.32558H8.61628C7.34814 1.32558 6.46265 1.32735 5.79544 1.4166ZM6.18605 6.84884C6.18605 6.67305 6.25588 6.50447 6.38017 6.38017C6.50447 6.25588 6.67305 6.18605 6.84884 6.18605H12.1512C12.3269 6.18605 12.4955 6.25588 12.6198 6.38017C12.7441 6.50447 12.814 6.67305 12.814 6.84884C12.814 7.02462 12.7441 7.1932 12.6198 7.3175C12.4955 7.4418 12.3269 7.51163 12.1512 7.51163H6.84884C6.67305 7.51163 6.50447 7.4418 6.38017 7.3175C6.25588 7.1932 6.18605 7.02462 6.18605 6.84884ZM6.18605 10.3837C6.18605 10.2079 6.25588 10.0394 6.38017 9.91506C6.50447 9.79076 6.67305 9.72093 6.84884 9.72093H12.1512C12.3269 9.72093 12.4955 9.79076 12.6198 9.91506C12.7441 10.0394 12.814 10.2079 12.814 10.3837C12.814 10.5595 12.7441 10.7281 12.6198 10.8524C12.4955 10.9767 12.3269 11.0465 12.1512 11.0465H6.84884C6.67305 11.0465 6.50447 10.9767 6.38017 10.8524C6.25588 10.7281 6.18605 10.5595 6.18605 10.3837ZM6.18605 13.9186C6.18605 13.7428 6.25588 13.5742 6.38017 13.4499C6.50447 13.3256 6.67305 13.2558 6.84884 13.2558H9.5C9.67578 13.2558 9.84437 13.3256 9.96866 13.4499C10.093 13.5742 10.1628 13.7428 10.1628 13.9186C10.1628 14.0944 10.093 14.263 9.96866 14.3873C9.84437 14.5116 9.67578 14.5814 9.5 14.5814H6.84884C6.67305 14.5814 6.50447 14.5116 6.38017 14.3873C6.25588 14.263 6.18605 14.0944 6.18605 13.9186Z" fill="#606060"/>
</svg>
