<svg width="21" height="17" viewBox="0 0 21 17" fill="none" xmlns="http://www.w3.org/2000/svg">
<path d="M1 6.27778H20M5.22222 11.5556H5.23278M9.44444 11.5556H11.5556M1 4.16667C1 3.32681 1.33363 2.52136 1.9275 1.9275C2.52136 1.33363 3.32681 1 4.16667 1H16.8333C17.6732 1 18.4786 1.33363 19.0725 1.9275C19.6664 2.52136 20 3.32681 20 4.16667V12.6111C20 13.451 19.6664 14.2564 19.0725 14.8503C18.4786 15.4441 17.6732 15.7778 16.8333 15.7778H4.16667C3.32681 15.7778 2.52136 15.4441 1.9275 14.8503C1.33363 14.2564 1 13.451 1 12.6111V4.16667Z" stroke="#606060" stroke-width="2" stroke-linecap="round" stroke-linejoin="round"/>
</svg>
